<?xml version="1.0" standalone="no"?>
 <!DOCTYPE svg PUBLIC "-//W3C//DTD SVG 1.1//EN" 
 "http://www.w3.org/Graphics/SVG/1.1/DTD/svg11.dtd"> 
<svg
  xmlns:svg="http://www.w3.org/2000/svg"
  xmlns="http://www.w3.org/2000/svg"
  xmlns:xlink="http://www.w3.org/1999/xlink"
  version="1.1"
  width="27.599640cm" height="17.848580cm" viewBox="0 0 275996400 178485800">
<title>SVG Picture created as totem_0_3-B_Paste.svg date 2023/03/09 11:42:13 </title>
  <desc>Picture generated by PCBNEW </desc>
<g style="fill:#000000; fill-opacity:1.000000;stroke:#000000; stroke-opacity:1.000000;
stroke-linecap:round; stroke-linejoin:round;"
 transform="translate(0 0) scale(1 1)">
</g>
<g style="fill:#000000; fill-opacity:0.0; 
stroke:#000000; stroke-width:0.000000; stroke-opacity:1; 
stroke-linecap:round; stroke-linejoin:round;">
<g >
</g>
<g style="fill:#000000; fill-opacity:0.0; 
stroke:#000000; stroke-width:1.000000; stroke-opacity:1; 
stroke-linecap:round; stroke-linejoin:round;">
</g>
<g style="fill:#000000; fill-opacity:1.0; 
stroke:#000000; stroke-width:1.000000; stroke-opacity:1; 
stroke-linecap:round; stroke-linejoin:round;">
<path style="fill:#000000; fill-opacity:1.0; 
stroke:#000000; stroke-width:1.000000; stroke-opacity:1; 
stroke-linecap:round; stroke-linejoin:round;fill-rule:evenodd;"
d="M 32941664.000000,100196384.000000
32490178.000000,97635884.000000
35050678.000000,97184398.000000
35502164.000000,99744898.000000
Z" /> 
<path style="fill:#000000; fill-opacity:1.0; 
stroke:#000000; stroke-width:1.000000; stroke-opacity:1; 
stroke-linecap:round; stroke-linejoin:round;fill-rule:evenodd;"
d="M 44698219.000000,100357324.000000
44246733.000000,97796824.000000
46807233.000000,97345338.000000
47258719.000000,99905838.000000
Z" /> 
</g>
<g >
</g>
<g >
</g>
<g >
</g>
<g style="fill:#000000; fill-opacity:1.0; 
stroke:#000000; stroke-width:1.000000; stroke-opacity:1; 
stroke-linecap:round; stroke-linejoin:round;">
<path style="fill:#000000; fill-opacity:1.0; 
stroke:#000000; stroke-width:1.000000; stroke-opacity:1; 
stroke-linecap:round; stroke-linejoin:round;fill-rule:evenodd;"
d="M 81528165.000000,103164348.000000
81528165.000000,100564348.000000
84128165.000000,100564348.000000
84128165.000000,103164348.000000
Z" /> 
<path style="fill:#000000; fill-opacity:1.0; 
stroke:#000000; stroke-width:1.000000; stroke-opacity:1; 
stroke-linecap:round; stroke-linejoin:round;fill-rule:evenodd;"
d="M 93078165.000000,105364348.000000
93078165.000000,102764348.000000
95678165.000000,102764348.000000
95678165.000000,105364348.000000
Z" /> 
</g>
<g >
</g>
<g style="fill:#000000; fill-opacity:1.0; 
stroke:#000000; stroke-width:1.000000; stroke-opacity:1; 
stroke-linecap:round; stroke-linejoin:round;">
<path style="fill:#000000; fill-opacity:1.0; 
stroke:#000000; stroke-width:1.000000; stroke-opacity:1; 
stroke-linecap:round; stroke-linejoin:round;fill-rule:evenodd;"
d="M 104554205.000000,85174989.000000
104554205.000000,82574989.000000
107154205.000000,82574989.000000
107154205.000000,85174989.000000
Z" /> 
<path style="fill:#000000; fill-opacity:1.0; 
stroke:#000000; stroke-width:1.000000; stroke-opacity:1; 
stroke-linecap:round; stroke-linejoin:round;fill-rule:evenodd;"
d="M 116104205.000000,87374989.000000
116104205.000000,84774989.000000
118704205.000000,84774989.000000
118704205.000000,87374989.000000
Z" /> 
</g>
<g >
</g>
<g style="fill:#000000; fill-opacity:1.0; 
stroke:#000000; stroke-width:1.000000; stroke-opacity:1; 
stroke-linecap:round; stroke-linejoin:round;">
<path style="fill:#000000; fill-opacity:1.0; 
stroke:#000000; stroke-width:1.000000; stroke-opacity:1; 
stroke-linecap:round; stroke-linejoin:round;fill-rule:evenodd;"
d="M 47642591.000000,50627194.000000
47461224.000000,48033527.000000
50054891.000000,47852160.000000
50236258.000000,50445827.000000
Z" /> 
<path style="fill:#000000; fill-opacity:1.0; 
stroke:#000000; stroke-width:1.000000; stroke-opacity:1; 
stroke-linecap:round; stroke-linejoin:round;fill-rule:evenodd;"
d="M 59317920.000000,52016148.000000
59136553.000000,49422481.000000
61730220.000000,49241114.000000
61911587.000000,51834781.000000
Z" /> 
</g>
<g >
</g>
<g >
</g>
<g style="fill:#000000; fill-opacity:1.0; 
stroke:#000000; stroke-width:1.000000; stroke-opacity:1; 
stroke-linecap:round; stroke-linejoin:round;">
<path style="fill:#000000; fill-opacity:1.0; 
stroke:#000000; stroke-width:1.000000; stroke-opacity:1; 
stroke-linecap:round; stroke-linejoin:round;fill-rule:evenodd;"
d="M 68554229.000000,57018188.000000
68554229.000000,54418188.000000
71154229.000000,54418188.000000
71154229.000000,57018188.000000
Z" /> 
<path style="fill:#000000; fill-opacity:1.0; 
stroke:#000000; stroke-width:1.000000; stroke-opacity:1; 
stroke-linecap:round; stroke-linejoin:round;fill-rule:evenodd;"
d="M 80104229.000000,59218188.000000
80104229.000000,56618188.000000
82704229.000000,56618188.000000
82704229.000000,59218188.000000
Z" /> 
</g>
<g >
</g>
<g style="fill:#000000; fill-opacity:1.0; 
stroke:#000000; stroke-width:1.000000; stroke-opacity:1; 
stroke-linecap:round; stroke-linejoin:round;">
<path style="fill:#000000; fill-opacity:1.0; 
stroke:#000000; stroke-width:1.000000; stroke-opacity:1; 
stroke-linecap:round; stroke-linejoin:round;fill-rule:evenodd;"
d="M 162178285.000000,85260067.000000
162178285.000000,82660067.000000
164778285.000000,82660067.000000
164778285.000000,85260067.000000
Z" /> 
<path style="fill:#000000; fill-opacity:1.0; 
stroke:#000000; stroke-width:1.000000; stroke-opacity:1; 
stroke-linecap:round; stroke-linejoin:round;fill-rule:evenodd;"
d="M 173728285.000000,87460067.000000
173728285.000000,84860067.000000
176328285.000000,84860067.000000
176328285.000000,87460067.000000
Z" /> 
</g>
<g >
</g>
<g style="fill:#000000; fill-opacity:1.0; 
stroke:#000000; stroke-width:1.000000; stroke-opacity:1; 
stroke-linecap:round; stroke-linejoin:round;">
<path style="fill:#000000; fill-opacity:1.0; 
stroke:#000000; stroke-width:1.000000; stroke-opacity:1; 
stroke-linecap:round; stroke-linejoin:round;fill-rule:evenodd;"
d="M 216677201.000000,83913183.000000
216858568.000000,81319516.000000
219452235.000000,81500883.000000
219270868.000000,84094550.000000
Z" /> 
<path style="fill:#000000; fill-opacity:1.0; 
stroke:#000000; stroke-width:1.000000; stroke-opacity:1; 
stroke-linecap:round; stroke-linejoin:round;fill-rule:evenodd;"
d="M 228045601.000000,86913512.000000
228226968.000000,84319845.000000
230820635.000000,84501212.000000
230639268.000000,87094879.000000
Z" /> 
</g>
<g >
</g>
<g >
</g>
<g >
</g>
<g >
</g>
<g style="fill:#000000; fill-opacity:1.0; 
stroke:#000000; stroke-width:1.000000; stroke-opacity:1; 
stroke-linecap:round; stroke-linejoin:round;">
<path style="fill:#000000; fill-opacity:1.0; 
stroke:#000000; stroke-width:1.000000; stroke-opacity:1; 
stroke-linecap:round; stroke-linejoin:round;fill-rule:evenodd;"
d="M 13839606.000000,95804433.000000
13388120.000000,93243933.000000
15948620.000000,92792447.000000
16400106.000000,95352947.000000
Z" /> 
<path style="fill:#000000; fill-opacity:1.0; 
stroke:#000000; stroke-width:1.000000; stroke-opacity:1; 
stroke-linecap:round; stroke-linejoin:round;fill-rule:evenodd;"
d="M 25596161.000000,95965373.000000
25144675.000000,93404873.000000
27705175.000000,92953387.000000
28156661.000000,95513887.000000
Z" /> 
</g>
<g >
</g>
<g >
</g>
<g >
</g>
<g >
</g>
<g style="fill:#000000; fill-opacity:1.0; 
stroke:#000000; stroke-width:1.000000; stroke-opacity:1; 
stroke-linecap:round; stroke-linejoin:round;">
<path style="fill:#000000; fill-opacity:1.0; 
stroke:#000000; stroke-width:1.000000; stroke-opacity:1; 
stroke-linecap:round; stroke-linejoin:round;fill-rule:evenodd;"
d="M 239854533.000000,65140551.000000
240306019.000000,62580051.000000
242866519.000000,63031537.000000
242415033.000000,65592037.000000
Z" /> 
<path style="fill:#000000; fill-opacity:1.0; 
stroke:#000000; stroke-width:1.000000; stroke-opacity:1; 
stroke-linecap:round; stroke-linejoin:round;fill-rule:evenodd;"
d="M 250847037.000000,69312765.000000
251298523.000000,66752265.000000
253859023.000000,67203751.000000
253407537.000000,69764251.000000
Z" /> 
</g>
<g >
</g>
<g >
</g>
<g style="fill:#000000; fill-opacity:1.0; 
stroke:#000000; stroke-width:1.000000; stroke-opacity:1; 
stroke-linecap:round; stroke-linejoin:round;">
<path style="fill:#000000; fill-opacity:1.0; 
stroke:#000000; stroke-width:1.000000; stroke-opacity:1; 
stroke-linecap:round; stroke-linejoin:round;fill-rule:evenodd;"
d="M 102811963.000000,104913696.000000
103484892.000000,102402289.000000
105996299.000000,103075218.000000
105323370.000000,105586625.000000
Z" /> 
<path style="fill:#000000; fill-opacity:1.0; 
stroke:#000000; stroke-width:1.000000; stroke-opacity:1; 
stroke-linecap:round; stroke-linejoin:round;fill-rule:evenodd;"
d="M 113399005.000000,110028093.000000
114071934.000000,107516686.000000
116583341.000000,108189615.000000
115910412.000000,110701022.000000
Z" /> 
</g>
<g >
</g>
<g style="fill:#000000; fill-opacity:1.0; 
stroke:#000000; stroke-width:1.000000; stroke-opacity:1; 
stroke-linecap:round; stroke-linejoin:round;">
<path style="fill:#000000; fill-opacity:1.0; 
stroke:#000000; stroke-width:1.000000; stroke-opacity:1; 
stroke-linecap:round; stroke-linejoin:round;fill-rule:evenodd;"
d="M 68554229.000000,40017968.000000
68554229.000000,37417968.000000
71154229.000000,37417968.000000
71154229.000000,40017968.000000
Z" /> 
<path style="fill:#000000; fill-opacity:1.0; 
stroke:#000000; stroke-width:1.000000; stroke-opacity:1; 
stroke-linecap:round; stroke-linejoin:round;fill-rule:evenodd;"
d="M 80104229.000000,42217968.000000
80104229.000000,39617968.000000
82704229.000000,39617968.000000
82704229.000000,42217968.000000
Z" /> 
</g>
<g >
</g>
<g >
</g>
<g style="fill:#000000; fill-opacity:1.0; 
stroke:#000000; stroke-width:1.000000; stroke-opacity:1; 
stroke-linecap:round; stroke-linejoin:round;">
<path style="fill:#000000; fill-opacity:1.0; 
stroke:#000000; stroke-width:1.000000; stroke-opacity:1; 
stroke-linecap:round; stroke-linejoin:round;fill-rule:evenodd;"
d="M 253004533.000000,94215551.000000
253456019.000000,91655051.000000
256016519.000000,92106537.000000
255565033.000000,94667037.000000
Z" /> 
<path style="fill:#000000; fill-opacity:1.0; 
stroke:#000000; stroke-width:1.000000; stroke-opacity:1; 
stroke-linecap:round; stroke-linejoin:round;fill-rule:evenodd;"
d="M 263997037.000000,98387765.000000
264448523.000000,95827265.000000
267009023.000000,96278751.000000
266557537.000000,98839251.000000
Z" /> 
</g>
<g >
</g>
<g >
</g>
<g >
</g>
<g style="fill:#000000; fill-opacity:1.0; 
stroke:#000000; stroke-width:1.000000; stroke-opacity:1; 
stroke-linecap:round; stroke-linejoin:round;">
<path style="fill:#000000; fill-opacity:1.0; 
stroke:#000000; stroke-width:1.000000; stroke-opacity:1; 
stroke-linecap:round; stroke-linejoin:round;fill-rule:evenodd;"
d="M 180178205.000000,82454887.000000
180178205.000000,79854887.000000
182778205.000000,79854887.000000
182778205.000000,82454887.000000
Z" /> 
<path style="fill:#000000; fill-opacity:1.0; 
stroke:#000000; stroke-width:1.000000; stroke-opacity:1; 
stroke-linecap:round; stroke-linejoin:round;fill-rule:evenodd;"
d="M 191728205.000000,84654887.000000
191728205.000000,82054887.000000
194328205.000000,82054887.000000
194328205.000000,84654887.000000
Z" /> 
</g>
<g >
</g>
<g >
</g>
<g >
</g>
<g >
</g>
<g >
</g>
<g >
</g>
<g style="fill:#000000; fill-opacity:1.0; 
stroke:#000000; stroke-width:1.000000; stroke-opacity:1; 
stroke-linecap:round; stroke-linejoin:round;">
<path style="fill:#000000; fill-opacity:1.0; 
stroke:#000000; stroke-width:1.000000; stroke-opacity:1; 
stroke-linecap:round; stroke-linejoin:round;fill-rule:evenodd;"
d="M 164254946.000000,107281890.000000
163582017.000000,104770483.000000
166093424.000000,104097554.000000
166766353.000000,106608961.000000
Z" /> 
<path style="fill:#000000; fill-opacity:1.0; 
stroke:#000000; stroke-width:1.000000; stroke-opacity:1; 
stroke-linecap:round; stroke-linejoin:round;fill-rule:evenodd;"
d="M 175980791.000000,106417567.000000
175307862.000000,103906160.000000
177819269.000000,103233231.000000
178492198.000000,105744638.000000
Z" /> 
</g>
<g >
</g>
<g >
</g>
<g style="fill:#000000; fill-opacity:1.0; 
stroke:#000000; stroke-width:1.000000; stroke-opacity:1; 
stroke-linecap:round; stroke-linejoin:round;">
<path style="fill:#000000; fill-opacity:1.0; 
stroke:#000000; stroke-width:1.000000; stroke-opacity:1; 
stroke-linecap:round; stroke-linejoin:round;fill-rule:evenodd;"
d="M 145140137.000000,116524830.000000
143840137.000000,114273164.000000
146091803.000000,112973164.000000
147391803.000000,115224830.000000
Z" /> 
<path style="fill:#000000; fill-opacity:1.0; 
stroke:#000000; stroke-width:1.000000; stroke-opacity:1; 
stroke-linecap:round; stroke-linejoin:round;fill-rule:evenodd;"
d="M 156242730.000000,112655086.000000
154942730.000000,110403420.000000
157194396.000000,109103420.000000
158494396.000000,111355086.000000
Z" /> 
</g>
<g >
</g>
<g >
</g>
<g style="fill:#000000; fill-opacity:1.0; 
stroke:#000000; stroke-width:1.000000; stroke-opacity:1; 
stroke-linecap:round; stroke-linejoin:round;">
<path style="fill:#000000; fill-opacity:1.0; 
stroke:#000000; stroke-width:1.000000; stroke-opacity:1; 
stroke-linecap:round; stroke-linejoin:round;fill-rule:evenodd;"
d="M 217863077.000000,66954375.000000
218044444.000000,64360708.000000
220638111.000000,64542075.000000
220456744.000000,67135742.000000
Z" /> 
<path style="fill:#000000; fill-opacity:1.0; 
stroke:#000000; stroke-width:1.000000; stroke-opacity:1; 
stroke-linecap:round; stroke-linejoin:round;fill-rule:evenodd;"
d="M 229231477.000000,69954704.000000
229412844.000000,67361037.000000
232006511.000000,67542404.000000
231825144.000000,70136071.000000
Z" /> 
</g>
<g >
</g>
<g style="fill:#000000; fill-opacity:1.0; 
stroke:#000000; stroke-width:1.000000; stroke-opacity:1; 
stroke-linecap:round; stroke-linejoin:round;">
<path style="fill:#000000; fill-opacity:1.0; 
stroke:#000000; stroke-width:1.000000; stroke-opacity:1; 
stroke-linecap:round; stroke-linejoin:round;fill-rule:evenodd;"
d="M 162178245.000000,51174549.000000
162178245.000000,48574549.000000
164778245.000000,48574549.000000
164778245.000000,51174549.000000
Z" /> 
<path style="fill:#000000; fill-opacity:1.0; 
stroke:#000000; stroke-width:1.000000; stroke-opacity:1; 
stroke-linecap:round; stroke-linejoin:round;fill-rule:evenodd;"
d="M 173728245.000000,53374549.000000
173728245.000000,50774549.000000
176328245.000000,50774549.000000
176328245.000000,53374549.000000
Z" /> 
</g>
<g >
</g>
<g style="fill:#000000; fill-opacity:1.0; 
stroke:#000000; stroke-width:1.000000; stroke-opacity:1; 
stroke-linecap:round; stroke-linejoin:round;">
<path style="fill:#000000; fill-opacity:1.0; 
stroke:#000000; stroke-width:1.000000; stroke-opacity:1; 
stroke-linecap:round; stroke-linejoin:round;fill-rule:evenodd;"
d="M 104554205.000000,51174549.000000
104554205.000000,48574549.000000
107154205.000000,48574549.000000
107154205.000000,51174549.000000
Z" /> 
<path style="fill:#000000; fill-opacity:1.0; 
stroke:#000000; stroke-width:1.000000; stroke-opacity:1; 
stroke-linecap:round; stroke-linejoin:round;fill-rule:evenodd;"
d="M 116104205.000000,53374549.000000
116104205.000000,50774549.000000
118704205.000000,50774549.000000
118704205.000000,53374549.000000
Z" /> 
</g>
<g >
</g>
<g style="fill:#000000; fill-opacity:1.0; 
stroke:#000000; stroke-width:1.000000; stroke-opacity:1; 
stroke-linecap:round; stroke-linejoin:round;">
<path style="fill:#000000; fill-opacity:1.0; 
stroke:#000000; stroke-width:1.000000; stroke-opacity:1; 
stroke-linecap:round; stroke-linejoin:round;fill-rule:evenodd;"
d="M 86554241.000000,48454447.000000
86554241.000000,45854447.000000
89154241.000000,45854447.000000
89154241.000000,48454447.000000
Z" /> 
<path style="fill:#000000; fill-opacity:1.0; 
stroke:#000000; stroke-width:1.000000; stroke-opacity:1; 
stroke-linecap:round; stroke-linejoin:round;fill-rule:evenodd;"
d="M 98104241.000000,50654447.000000
98104241.000000,48054447.000000
100704241.000000,48054447.000000
100704241.000000,50654447.000000
Z" /> 
</g>
<g >
</g>
<g >
</g>
<g >
</g>
<g style="fill:#000000; fill-opacity:1.0; 
stroke:#000000; stroke-width:1.000000; stroke-opacity:1; 
stroke-linecap:round; stroke-linejoin:round;">
<path style="fill:#000000; fill-opacity:1.0; 
stroke:#000000; stroke-width:1.000000; stroke-opacity:1; 
stroke-linecap:round; stroke-linejoin:round;fill-rule:evenodd;"
d="M 48828467.000000,67586002.000000
48647100.000000,64992335.000000
51240767.000000,64810968.000000
51422134.000000,67404635.000000
Z" /> 
<path style="fill:#000000; fill-opacity:1.0; 
stroke:#000000; stroke-width:1.000000; stroke-opacity:1; 
stroke-linecap:round; stroke-linejoin:round;fill-rule:evenodd;"
d="M 60503796.000000,68974956.000000
60322429.000000,66381289.000000
62916096.000000,66199922.000000
63097463.000000,68793589.000000
Z" /> 
</g>
<g >
</g>
<g style="fill:#000000; fill-opacity:1.0; 
stroke:#000000; stroke-width:1.000000; stroke-opacity:1; 
stroke-linecap:round; stroke-linejoin:round;">
<path style="fill:#000000; fill-opacity:1.0; 
stroke:#000000; stroke-width:1.000000; stroke-opacity:1; 
stroke-linecap:round; stroke-linejoin:round;fill-rule:evenodd;"
d="M 180178205.000000,65454667.000000
180178205.000000,62854667.000000
182778205.000000,62854667.000000
182778205.000000,65454667.000000
Z" /> 
<path style="fill:#000000; fill-opacity:1.0; 
stroke:#000000; stroke-width:1.000000; stroke-opacity:1; 
stroke-linecap:round; stroke-linejoin:round;fill-rule:evenodd;"
d="M 191728205.000000,67654667.000000
191728205.000000,65054667.000000
194328205.000000,65054667.000000
194328205.000000,67654667.000000
Z" /> 
</g>
<g >
</g>
<g style="fill:#000000; fill-opacity:1.0; 
stroke:#000000; stroke-width:1.000000; stroke-opacity:1; 
stroke-linecap:round; stroke-linejoin:round;">
<path style="fill:#000000; fill-opacity:1.0; 
stroke:#000000; stroke-width:1.000000; stroke-opacity:1; 
stroke-linecap:round; stroke-linejoin:round;fill-rule:evenodd;"
d="M 86554241.000000,65454667.000000
86554241.000000,62854667.000000
89154241.000000,62854667.000000
89154241.000000,65454667.000000
Z" /> 
<path style="fill:#000000; fill-opacity:1.0; 
stroke:#000000; stroke-width:1.000000; stroke-opacity:1; 
stroke-linecap:round; stroke-linejoin:round;fill-rule:evenodd;"
d="M 98104241.000000,67654667.000000
98104241.000000,65054667.000000
100704241.000000,65054667.000000
100704241.000000,67654667.000000
Z" /> 
</g>
<g >
</g>
<g style="fill:#000000; fill-opacity:1.0; 
stroke:#000000; stroke-width:1.000000; stroke-opacity:1; 
stroke-linecap:round; stroke-linejoin:round;">
<path style="fill:#000000; fill-opacity:1.0; 
stroke:#000000; stroke-width:1.000000; stroke-opacity:1; 
stroke-linecap:round; stroke-linejoin:round;fill-rule:evenodd;"
d="M 236902474.000000,81882500.000000
237353960.000000,79322000.000000
239914460.000000,79773486.000000
239462974.000000,82333986.000000
Z" /> 
<path style="fill:#000000; fill-opacity:1.0; 
stroke:#000000; stroke-width:1.000000; stroke-opacity:1; 
stroke-linecap:round; stroke-linejoin:round;fill-rule:evenodd;"
d="M 247894978.000000,86054714.000000
248346464.000000,83494214.000000
250906964.000000,83945700.000000
250455478.000000,86506200.000000
Z" /> 
</g>
<g >
</g>
<g >
</g>
<g >
</g>
<g >
</g>
<g >
</g>
<g >
</g>
<g style="fill:#000000; fill-opacity:1.0; 
stroke:#000000; stroke-width:1.000000; stroke-opacity:1; 
stroke-linecap:round; stroke-linejoin:round;">
<path style="fill:#000000; fill-opacity:1.0; 
stroke:#000000; stroke-width:1.000000; stroke-opacity:1; 
stroke-linecap:round; stroke-linejoin:round;fill-rule:evenodd;"
d="M 50014342.000000,84544811.000000
49832975.000000,81951144.000000
52426642.000000,81769777.000000
52608009.000000,84363444.000000
Z" /> 
<path style="fill:#000000; fill-opacity:1.0; 
stroke:#000000; stroke-width:1.000000; stroke-opacity:1; 
stroke-linecap:round; stroke-linejoin:round;fill-rule:evenodd;"
d="M 61689671.000000,85933765.000000
61508304.000000,83340098.000000
64101971.000000,83158731.000000
64283338.000000,85752398.000000
Z" /> 
</g>
<g >
</g>
<g >
</g>
<g style="fill:#000000; fill-opacity:1.0; 
stroke:#000000; stroke-width:1.000000; stroke-opacity:1; 
stroke-linecap:round; stroke-linejoin:round;">
<path style="fill:#000000; fill-opacity:1.0; 
stroke:#000000; stroke-width:1.000000; stroke-opacity:1; 
stroke-linecap:round; stroke-linejoin:round;fill-rule:evenodd;"
d="M 122840499.000000,111949830.000000
124140499.000000,109698164.000000
126392165.000000,110998164.000000
125092165.000000,113249830.000000
Z" /> 
<path style="fill:#000000; fill-opacity:1.0; 
stroke:#000000; stroke-width:1.000000; stroke-opacity:1; 
stroke-linecap:round; stroke-linejoin:round;fill-rule:evenodd;"
d="M 131743092.000000,119630086.000000
133043092.000000,117378420.000000
135294758.000000,118678420.000000
133994758.000000,120930086.000000
Z" /> 
</g>
<g >
</g>
<g >
</g>
<g style="fill:#000000; fill-opacity:1.0; 
stroke:#000000; stroke-width:1.000000; stroke-opacity:1; 
stroke-linecap:round; stroke-linejoin:round;">
<path style="fill:#000000; fill-opacity:1.0; 
stroke:#000000; stroke-width:1.000000; stroke-opacity:1; 
stroke-linecap:round; stroke-linejoin:round;fill-rule:evenodd;"
d="M 198178165.000000,57018188.000000
198178165.000000,54418188.000000
200778165.000000,54418188.000000
200778165.000000,57018188.000000
Z" /> 
<path style="fill:#000000; fill-opacity:1.0; 
stroke:#000000; stroke-width:1.000000; stroke-opacity:1; 
stroke-linecap:round; stroke-linejoin:round;fill-rule:evenodd;"
d="M 209728165.000000,59218188.000000
209728165.000000,56618188.000000
212328165.000000,56618188.000000
212328165.000000,59218188.000000
Z" /> 
</g>
<g >
</g>
<g >
</g>
<g >
</g>
<g >
</g>
<g >
</g>
<g style="fill:#000000; fill-opacity:1.0; 
stroke:#000000; stroke-width:1.000000; stroke-opacity:1; 
stroke-linecap:round; stroke-linejoin:round;">
<path style="fill:#000000; fill-opacity:1.0; 
stroke:#000000; stroke-width:1.000000; stroke-opacity:1; 
stroke-linecap:round; stroke-linejoin:round;fill-rule:evenodd;"
d="M 27037550.000000,66712486.000000
26586064.000000,64151986.000000
29146564.000000,63700500.000000
29598050.000000,66261000.000000
Z" /> 
<path style="fill:#000000; fill-opacity:1.0; 
stroke:#000000; stroke-width:1.000000; stroke-opacity:1; 
stroke-linecap:round; stroke-linejoin:round;fill-rule:evenodd;"
d="M 38794105.000000,66873426.000000
38342619.000000,64312926.000000
40903119.000000,63861440.000000
41354605.000000,66421940.000000
Z" /> 
</g>
<g >
</g>
<g >
</g>
<g >
</g>
<g style="fill:#000000; fill-opacity:1.0; 
stroke:#000000; stroke-width:1.000000; stroke-opacity:1; 
stroke-linecap:round; stroke-linejoin:round;">
<path style="fill:#000000; fill-opacity:1.0; 
stroke:#000000; stroke-width:1.000000; stroke-opacity:1; 
stroke-linecap:round; stroke-linejoin:round;fill-rule:evenodd;"
d="M 198178165.000000,40017968.000000
198178165.000000,37417968.000000
200778165.000000,37417968.000000
200778165.000000,40017968.000000
Z" /> 
<path style="fill:#000000; fill-opacity:1.0; 
stroke:#000000; stroke-width:1.000000; stroke-opacity:1; 
stroke-linecap:round; stroke-linejoin:round;fill-rule:evenodd;"
d="M 209728165.000000,42217968.000000
209728165.000000,39617968.000000
212328165.000000,39617968.000000
212328165.000000,42217968.000000
Z" /> 
</g>
<g >
</g>
<g >
</g>
<g style="fill:#000000; fill-opacity:1.0; 
stroke:#000000; stroke-width:1.000000; stroke-opacity:1; 
stroke-linecap:round; stroke-linejoin:round;">
<path style="fill:#000000; fill-opacity:1.0; 
stroke:#000000; stroke-width:1.000000; stroke-opacity:1; 
stroke-linecap:round; stroke-linejoin:round;fill-rule:evenodd;"
d="M 219048952.000000,49995566.000000
219230319.000000,47401899.000000
221823986.000000,47583266.000000
221642619.000000,50176933.000000
Z" /> 
<path style="fill:#000000; fill-opacity:1.0; 
stroke:#000000; stroke-width:1.000000; stroke-opacity:1; 
stroke-linecap:round; stroke-linejoin:round;fill-rule:evenodd;"
d="M 230417352.000000,52995895.000000
230598719.000000,50402228.000000
233192386.000000,50583595.000000
233011019.000000,53177262.000000
Z" /> 
</g>
<g >
</g>
<g style="fill:#000000; fill-opacity:1.0; 
stroke:#000000; stroke-width:1.000000; stroke-opacity:1; 
stroke-linecap:round; stroke-linejoin:round;">
<path style="fill:#000000; fill-opacity:1.0; 
stroke:#000000; stroke-width:1.000000; stroke-opacity:1; 
stroke-linecap:round; stroke-linejoin:round;fill-rule:evenodd;"
d="M 233950419.000000,98624448.000000
234401905.000000,96063948.000000
236962405.000000,96515434.000000
236510919.000000,99075934.000000
Z" /> 
<path style="fill:#000000; fill-opacity:1.0; 
stroke:#000000; stroke-width:1.000000; stroke-opacity:1; 
stroke-linecap:round; stroke-linejoin:round;fill-rule:evenodd;"
d="M 244942923.000000,102796662.000000
245394409.000000,100236162.000000
247954909.000000,100687648.000000
247503423.000000,103248148.000000
Z" /> 
</g>
<g >
</g>
<g style="fill:#000000; fill-opacity:1.0; 
stroke:#000000; stroke-width:1.000000; stroke-opacity:1; 
stroke-linecap:round; stroke-linejoin:round;">
<path style="fill:#000000; fill-opacity:1.0; 
stroke:#000000; stroke-width:1.000000; stroke-opacity:1; 
stroke-linecap:round; stroke-linejoin:round;fill-rule:evenodd;"
d="M 185203165.000000,103164348.000000
185203165.000000,100564348.000000
187803165.000000,100564348.000000
187803165.000000,103164348.000000
Z" /> 
<path style="fill:#000000; fill-opacity:1.0; 
stroke:#000000; stroke-width:1.000000; stroke-opacity:1; 
stroke-linecap:round; stroke-linejoin:round;fill-rule:evenodd;"
d="M 196753165.000000,105364348.000000
196753165.000000,102764348.000000
199353165.000000,102764348.000000
199353165.000000,105364348.000000
Z" /> 
</g>
<g >
</g>
<g >
</g>
<g >
</g>
<g >
</g>
<g >
</g>
<g >
</g>
<g style="fill:#000000; fill-opacity:1.0; 
stroke:#000000; stroke-width:1.000000; stroke-opacity:1; 
stroke-linecap:round; stroke-linejoin:round;">
<path style="fill:#000000; fill-opacity:1.0; 
stroke:#000000; stroke-width:1.000000; stroke-opacity:1; 
stroke-linecap:round; stroke-linejoin:round;fill-rule:evenodd;"
d="M 198178165.000000,74018408.000000
198178165.000000,71418408.000000
200778165.000000,71418408.000000
200778165.000000,74018408.000000
Z" /> 
<path style="fill:#000000; fill-opacity:1.0; 
stroke:#000000; stroke-width:1.000000; stroke-opacity:1; 
stroke-linecap:round; stroke-linejoin:round;fill-rule:evenodd;"
d="M 209728165.000000,76218408.000000
209728165.000000,73618408.000000
212328165.000000,73618408.000000
212328165.000000,76218408.000000
Z" /> 
</g>
<g >
</g>
<g >
</g>
<g >
</g>
<g style="fill:#000000; fill-opacity:1.0; 
stroke:#000000; stroke-width:1.000000; stroke-opacity:1; 
stroke-linecap:round; stroke-linejoin:round;">
<path style="fill:#000000; fill-opacity:1.0; 
stroke:#000000; stroke-width:1.000000; stroke-opacity:1; 
stroke-linecap:round; stroke-linejoin:round;fill-rule:evenodd;"
d="M 86554241.000000,82454887.000000
86554241.000000,79854887.000000
89154241.000000,79854887.000000
89154241.000000,82454887.000000
Z" /> 
<path style="fill:#000000; fill-opacity:1.0; 
stroke:#000000; stroke-width:1.000000; stroke-opacity:1; 
stroke-linecap:round; stroke-linejoin:round;fill-rule:evenodd;"
d="M 98104241.000000,84654887.000000
98104241.000000,82054887.000000
100704241.000000,82054887.000000
100704241.000000,84654887.000000
Z" /> 
</g>
<g >
</g>
<g >
</g>
<g >
</g>
<g >
</g>
<g >
</g>
<g >
</g>
<g >
</g>
<g >
</g>
<g >
</g>
<g >
</g>
<g >
</g>
<g >
</g>
<g style="fill:#000000; fill-opacity:1.0; 
stroke:#000000; stroke-width:1.000000; stroke-opacity:1; 
stroke-linecap:round; stroke-linejoin:round;">
<path style="fill:#000000; fill-opacity:1.0; 
stroke:#000000; stroke-width:1.000000; stroke-opacity:1; 
stroke-linecap:round; stroke-linejoin:round;fill-rule:evenodd;"
d="M 104554205.000000,68174769.000000
104554205.000000,65574769.000000
107154205.000000,65574769.000000
107154205.000000,68174769.000000
Z" /> 
<path style="fill:#000000; fill-opacity:1.0; 
stroke:#000000; stroke-width:1.000000; stroke-opacity:1; 
stroke-linecap:round; stroke-linejoin:round;fill-rule:evenodd;"
d="M 116104205.000000,70374769.000000
116104205.000000,67774769.000000
118704205.000000,67774769.000000
118704205.000000,70374769.000000
Z" /> 
</g>
<g >
</g>
<g style="fill:#000000; fill-opacity:1.0; 
stroke:#000000; stroke-width:1.000000; stroke-opacity:1; 
stroke-linecap:round; stroke-linejoin:round;">
<path style="fill:#000000; fill-opacity:1.0; 
stroke:#000000; stroke-width:1.000000; stroke-opacity:1; 
stroke-linecap:round; stroke-linejoin:round;fill-rule:evenodd;"
d="M 68554229.000000,74018408.000000
68554229.000000,71418408.000000
71154229.000000,71418408.000000
71154229.000000,74018408.000000
Z" /> 
<path style="fill:#000000; fill-opacity:1.0; 
stroke:#000000; stroke-width:1.000000; stroke-opacity:1; 
stroke-linecap:round; stroke-linejoin:round;fill-rule:evenodd;"
d="M 80104229.000000,76218408.000000
80104229.000000,73618408.000000
82704229.000000,73618408.000000
82704229.000000,76218408.000000
Z" /> 
</g>
<g >
</g>
<g style="fill:#000000; fill-opacity:1.0; 
stroke:#000000; stroke-width:1.000000; stroke-opacity:1; 
stroke-linecap:round; stroke-linejoin:round;">
<path style="fill:#000000; fill-opacity:1.0; 
stroke:#000000; stroke-width:1.000000; stroke-opacity:1; 
stroke-linecap:round; stroke-linejoin:round;fill-rule:evenodd;"
d="M 29989606.000000,83454433.000000
29538120.000000,80893933.000000
32098620.000000,80442447.000000
32550106.000000,83002947.000000
Z" /> 
<path style="fill:#000000; fill-opacity:1.0; 
stroke:#000000; stroke-width:1.000000; stroke-opacity:1; 
stroke-linecap:round; stroke-linejoin:round;fill-rule:evenodd;"
d="M 41746161.000000,83615373.000000
41294675.000000,81054873.000000
43855175.000000,80603387.000000
44306661.000000,83163887.000000
Z" /> 
</g>
<g >
</g>
<g >
</g>
<g >
</g>
<g >
</g>
<g style="fill:#000000; fill-opacity:1.0; 
stroke:#000000; stroke-width:1.000000; stroke-opacity:1; 
stroke-linecap:round; stroke-linejoin:round;">
<path style="fill:#000000; fill-opacity:1.0; 
stroke:#000000; stroke-width:1.000000; stroke-opacity:1; 
stroke-linecap:round; stroke-linejoin:round;fill-rule:evenodd;"
d="M 180178205.000000,48454447.000000
180178205.000000,45854447.000000
182778205.000000,45854447.000000
182778205.000000,48454447.000000
Z" /> 
<path style="fill:#000000; fill-opacity:1.0; 
stroke:#000000; stroke-width:1.000000; stroke-opacity:1; 
stroke-linecap:round; stroke-linejoin:round;fill-rule:evenodd;"
d="M 191728205.000000,50654447.000000
191728205.000000,48054447.000000
194328205.000000,48054447.000000
194328205.000000,50654447.000000
Z" /> 
</g>
<g >
</g>
<g style="fill:#000000; fill-opacity:1.0; 
stroke:#000000; stroke-width:1.000000; stroke-opacity:1; 
stroke-linecap:round; stroke-linejoin:round;">
<path style="fill:#000000; fill-opacity:1.0; 
stroke:#000000; stroke-width:1.000000; stroke-opacity:1; 
stroke-linecap:round; stroke-linejoin:round;fill-rule:evenodd;"
d="M 162178285.000000,68259847.000000
162178285.000000,65659847.000000
164778285.000000,65659847.000000
164778285.000000,68259847.000000
Z" /> 
<path style="fill:#000000; fill-opacity:1.0; 
stroke:#000000; stroke-width:1.000000; stroke-opacity:1; 
stroke-linecap:round; stroke-linejoin:round;fill-rule:evenodd;"
d="M 173728285.000000,70459847.000000
173728285.000000,67859847.000000
176328285.000000,67859847.000000
176328285.000000,70459847.000000
Z" /> 
</g>
<g >
</g>
<g >
</g>
<g >
</g>
<g >
</g>
<g >
</g>
<g >
</g>
<g >
</g>
<g >
</g>
</g>
<g style="fill:#000000; fill-opacity:1.0; 
stroke:#000000; stroke-width:1.000000; stroke-opacity:1; 
stroke-linecap:round; stroke-linejoin:round;">
</g>
<g style="fill:#D0D2CD; fill-opacity:1.0; 
stroke:#D0D2CD; stroke-width:1.000000; stroke-opacity:1; 
stroke-linecap:round; stroke-linejoin:round;">
</g>
<g style="fill:#D0D2CD; fill-opacity:0.0; 
stroke:#D0D2CD; stroke-width:10000.000000; stroke-opacity:1; 
stroke-linecap:round; stroke-linejoin:round;">
<path d="M136600903.000000,115155542.000000 C136600903.000000,115155542.000000 131266905.000000,112075788.000000 131266905.000000,112075788.000000" />
<path d="M11872776.000000,109740412.000000 C11872776.000000,109740412.000000 18632000.000000,108548021.000000 18632000.000000,108548021.000000" />
<path d="M141972565 60384348
L134077562 60384345
" />
<path d="M144617956.000000,112075788.000000 C144617956.000000,112075788.000000 139283958.000000,115155542.000000 139283958.000000,115155542.000000" />
<path d="M63896883.000000,36295611.000000 C63896883.000000,36295611.000000 63896883.000000,40155000.000000 63896883.000000,40155000.000000" />
<path d="M19630362.000000,115092044.000000 C19630362.000000,115092044.000000 76861504.000000,115092044.000000 76861504.000000,115092044.000000" />
<path d="M193502311.000000,36295611.000000 C193502311.000000,36295611.000000 193502311.000000,40155000.000000 193502311.000000,40155000.000000" />
<path d="M82396546.000000,40155000.000000 C82396546.000000,40155000.000000 82396546.000000,36295611.000000 82396546.000000,36295611.000000" />
<path d="M82100214.000000,35999278.000000 C82100214.000000,35999278.000000 64193215.000000,35999278.000000 64193215.000000,35999278.000000" />
<path d="M144472562 60384345
L144625000 60384000
" />
<path d="M131270414 96784351
L131547568 96784351
" />
<path d="M64193215.000000,35999278.000000 C64030935.000000,35999278.000000 63896883.000000,36133336.000000 63896883.000000,36295611.000000" />
<path d="M172423903.000000,118954965.000000 C181236285.000000,116594881.000000 185684829.000000,116594881.000000 190129821.000000,116594881.000000" />
<path d="M148032853.000000,130310883.000000 C149010044.000000,129746436.000000 152629547.000000,127657998.000000 155695187.000000,125887047.000000" />
<path d="M144472565 54384348
L144624954 54384348
" />
<path d="M267289366.000000,92849410.000000 C267317594.000000,92687135.000000 267211765.000000,92535432.000000 267049480.000000,92507215.000000" />
<path d="M131273902.000000,54384351.000000 C131273902.000000,54319031.000000 131273902.000000,41153362.000000 131273902.000000,41153362.000000" />
<path d="M131266905.000000,112075788.000000 C131266905.000000,112075788.000000 131266905.000000,102780091.000000 131266905.000000,102780091.000000" />
<path d="M144442565 96784348
L144625000 96784348
" />
<path d="M77157836.000000,116594881.000000 C78216170.000000,116594881.000000 81959137.000000,116594881.000000 85755029.000000,116594881.000000" />
<path d="M264354252.000000,109500525.000000 C264354252.000000,109500525.000000 267289366.000000,92849410.000000 267289366.000000,92849410.000000" />
<path d="M199023356.000000,116298549.000000 C199023356.000000,116298549.000000 199023356.000000,115092044.000000 199023356.000000,115092044.000000" />
<path d="M139174598.000000,115557714.000000 C139174598.000000,115557714.000000 147630681.000000,130201523.000000 147630681.000000,130201523.000000" />
<path d="M257252855.000000,114093688.000000 C257252855.000000,114093688.000000 257252855.000000,108548021.000000 257252855.000000,108548021.000000" />
<path d="M85755029.000000,116594881.000000 C90200031.000000,116594881.000000 94648554.000000,116594881.000000 103460947.000000,118954965.000000" />
<path d="M257252855.000000,108548021.000000 C257252855.000000,108548021.000000 264012068.000000,109740412.000000 264012068.000000,109740412.000000" />
<path d="M211705657.000000,35999278.000000 C211705657.000000,35999278.000000 193798654.000000,35999278.000000 193798654.000000,35999278.000000" />
<path d="M76861504.000000,115092044.000000 C76861504.000000,115092044.000000 76861504.000000,116298549.000000 76861504.000000,116298549.000000" />
<path d="M76861504.000000,116298549.000000 C76861504.000000,116460824.000000 76992031.000000,116594881.000000 77157836.000000,116594881.000000" />
<path d="M131270414 60384348
L131270414 96784351
" />
<path d="M256261508.000000,40155000.000000 C256261508.000000,40155000.000000 212002000.000000,40155000.000000 212002000.000000,40155000.000000" />
<path d="M144442562 102784345
L144617956 102780091
" />
<path d="M193502311.000000,40155000.000000 C193502311.000000,40155000.000000 145623310.000000,40155000.000000 145623310.000000,40155000.000000" />
<path d="M18632000.000000,90778606.000000 C18632000.000000,90778606.000000 8835361.000000,92507215.000000 8835361.000000,92507215.000000" />
<path d="M155695187.000000,125887047.000000 C159653354.000000,123601043.000000 163611521.000000,121315050.000000 172423903.000000,118954965.000000" />
<path d="M19630362.000000,40155000.000000 C19076501.000000,40155000.000000 18632000.000000,40603030.000000 18632000.000000,41153362.000000" />
<path d="M130275546.000000,40155000.000000 C130275546.000000,40155000.000000 82396546.000000,40155000.000000 82396546.000000,40155000.000000" />
<path d="M11530582.000000,109500525.000000 C11558804.000000,109662800.000000 11710499.000000,109768640.000000 11872776.000000,109740412.000000" />
</g>
<g style="fill:#D0D2CD; fill-opacity:0.0; 
stroke:#D0D2CD; stroke-width:100000.000000; stroke-opacity:1; 
stroke-linecap:round; stroke-linejoin:round;">
<path d="M134077565 54384348
L141972568 54384348
" />
</g>
<g style="fill:#D0D2CD; fill-opacity:0.0; 
stroke:#D0D2CD; stroke-width:10000.000000; stroke-opacity:1; 
stroke-linecap:round; stroke-linejoin:round;">
<path d="M257259875.000000,90778617.000000 C257259875.000000,90778617.000000 257259875.000000,41153362.000000 257259875.000000,41153362.000000" />
<path d="M131273902 54384351
L131577568 54384351
" />
<path d="M264012068.000000,109740412.000000 C264174354.000000,109768629.000000 264326046.000000,109662800.000000 264354252.000000,109500525.000000" />
<path d="M193798654.000000,35999278.000000 C193636368.000000,35999278.000000 193502311.000000,36133336.000000 193502311.000000,36295611.000000" />
<path d="M128254179.000000,130201523.000000 C128254179.000000,130201523.000000 136710263.000000,115557714.000000 136710263.000000,115557714.000000" />
<path d="M8835361.000000,92507215.000000 C8673083.000000,92535432.000000 8567250.000000,92687135.000000 8595472.000000,92849410.000000" />
<path d="M8595472.000000,92849410.000000 C8595472.000000,92849410.000000 11530582.000000,109500525.000000 11530582.000000,109500525.000000" />
<path d="M63896883.000000,40155000.000000 C63896883.000000,40155000.000000 19630362.000000,40155000.000000 19630362.000000,40155000.000000" />
</g>
<g style="fill:#D0D2CD; fill-opacity:0.0; 
stroke:#D0D2CD; stroke-width:100000.000000; stroke-opacity:1; 
stroke-linecap:round; stroke-linejoin:round;">
<path d="M134047565 96784348
L141942568 96784348
" />
</g>
<g style="fill:#D0D2CD; fill-opacity:0.0; 
stroke:#D0D2CD; stroke-width:10000.000000; stroke-opacity:1; 
stroke-linecap:round; stroke-linejoin:round;">
<path d="M131273902.000000,41153362.000000 C131273902.000000,40599498.000000 130825878.000000,40155000.000000 130275546.000000,40155000.000000" />
<path d="M144624954.000000,41153362.000000 C144624954.000000,41153362.000000 144624954.000000,54384348.000000 144624954.000000,54384348.000000" />
<path d="M120189674.000000,125887047.000000 C123255313.000000,127657987.000000 126871286.000000,129746436.000000 127852007.000000,130310883.000000" />
<path d="M145623310.000000,40155000.000000 C145069447.000000,40155000.000000 144624954.000000,40603030.000000 144624954.000000,41153362.000000" />
<path d="M18632000.000000,41153362.000000 C18632000.000000,41153362.000000 18632000.000000,90778606.000000 18632000.000000,90778606.000000" />
<path d="M198727014.000000,116594881.000000 C198889299.000000,116594881.000000 199023356.000000,116460824.000000 199023356.000000,116298549.000000" />
<path d="M144617956.000000,102780091.000000 C144617956.000000,102780091.000000 144617956.000000,112075788.000000 144617956.000000,112075788.000000" />
<path d="M199023356.000000,115092044.000000 C199023356.000000,115092044.000000 256254488.000000,115092044.000000 256254488.000000,115092044.000000" />
<path d="M18632000.000000,114093688.000000 C18632000.000000,114647552.000000 19080027.000000,115092044.000000 19630362.000000,115092044.000000" />
<path d="M103460947.000000,118954965.000000 C112273339.000000,121315050.000000 116231507.000000,123601053.000000 120189674.000000,125887047.000000" />
<path d="M127852007.000000,130310883.000000 C127993116.000000,130392026.000000 128173037.000000,130342632.000000 128254179.000000,130201523.000000" />
<path d="M131547565 102784348
L131266905 102780091
" />
<path d="M139283958.000000,115155542.000000 C139142849.000000,115236685.000000 139093455.000000,115416594.000000 139174598.000000,115557714.000000" />
<path d="M267049480.000000,92507215.000000 C267049480.000000,92507215.000000 267056521.000000,92507226.000000 267056521.000000,92507226.000000" />
<path d="M144625000 60384000
L144625000 96784348
" />
<path d="M256254488.000000,115092044.000000 C256808352.000000,115092044.000000 257252855.000000,114644021.000000 257252855.000000,114093688.000000" />
<path d="M267056521.000000,92507226.000000 C267056521.000000,92507226.000000 257259875.000000,90778617.000000 257259875.000000,90778617.000000" />
<path d="M136710263.000000,115557714.000000 C136791406.000000,115416605.000000 136742012.000000,115236685.000000 136600903.000000,115155542.000000" />
<path d="M18632000.000000,108548021.000000 C18632000.000000,108548021.000000 18632000.000000,114093688.000000 18632000.000000,114093688.000000" />
<path d="M147630681.000000,130201523.000000 C147711824.000000,130342632.000000 147891734.000000,130392026.000000 148032853.000000,130310883.000000" />
<path d="M131577565 60384348
L131270414 60384348
" />
<path d="M212002000.000000,36295611.000000 C212002000.000000,36133330.000000 211867943.000000,35999278.000000 211705657.000000,35999278.000000" />
<path d="M190129821.000000,116594881.000000 C193929244.000000,116594881.000000 197672211.000000,116594881.000000 198727014.000000,116594881.000000" />
<path d="M82396546.000000,36295611.000000 C82396546.000000,36133330.000000 82262488.000000,35999278.000000 82100214.000000,35999278.000000" />
</g>
<g style="fill:#D0D2CD; fill-opacity:0.0; 
stroke:#D0D2CD; stroke-width:100000.000000; stroke-opacity:1; 
stroke-linecap:round; stroke-linejoin:round;">
<path d="M134047562 102784345
L141942565 102784348
" />
</g>
<g style="fill:#D0D2CD; fill-opacity:0.0; 
stroke:#D0D2CD; stroke-width:10000.000000; stroke-opacity:1; 
stroke-linecap:round; stroke-linejoin:round;">
<path d="M257259875.000000,41153362.000000 C257259875.000000,40599498.000000 256811840.000000,40155000.000000 256261508.000000,40155000.000000" />
<path d="M212002000.000000,40155000.000000 C212002000.000000,40155000.000000 212002000.000000,36295611.000000 212002000.000000,36295611.000000" />
</g>
<g style="fill:#D0D2CD; fill-opacity:0.0; 
stroke:#D0D2CD; stroke-width:100000.000000; stroke-opacity:1; 
stroke-linecap:round; stroke-linejoin:round;">
<circle cx="138009000.000000" cy="2500000.000000" r="1666666.000000" /> 
<path d="M135509000 2500000
L140509000 2500000
" />
<path d="M138009000 0
L138009000 5000000
" />
</g>
<g style="fill:#D0D2CD; fill-opacity:0.0; 
stroke:#D0D2CD; stroke-width:80000.000000; stroke-opacity:1; 
stroke-linecap:round; stroke-linejoin:round;">
<path d="M143442565 101784348
L142942565 101784348
" />
<path d="M142942565 97784348
L143442565 97784348
" />
<path d="M142942562.000000 101784351.000001 A999996.000000 999996.000000 0.0 0 0 141942565.000001 102784348.000000" />
<path d="M141942568.000001 96784351.000000 A999996.000000 999996.000000 0.0 0 0 142942565.000000 97784347.999999" />
<path d="M144442561.999999 102784345.000000 A999996.000000 999996.000000 0.0 0 0 143442565.000000 101784348.000001" />
<path d="M143442568.000000 97784344.999999 A999996.000000 999996.000000 0.0 0 0 144442564.999999 96784348.000000" />
</g>
<g style="fill:#D0D2CD; fill-opacity:0.0; 
stroke:#D0D2CD; stroke-width:120000.000000; stroke-opacity:1; 
stroke-linecap:round; stroke-linejoin:round;">
<path d="M248895000 48068000
L247244000 48068000
" />
<path d="M249276000 46086800
L249276000 47687000
" />
<path d="M253263800 51624000
L254940200 51624000
" />
<path d="M246863000 47687000
L246863000 46086800
" />
<path d="M247548800 45401000
L248590200 45401000
" />
<path d="M252578000 49261800
L252578000 50938200
" />
<path d="M255626000 49261800
L255626000 50938200
" />
<path d="M253263800 48576000
L254940200 48576000
" />
<path d="M255625999.874324 50938200.222210 A503257.000000 503257.000000 0.0 0 0 254940200.222210 51623999.874324" />
<path d="M253263799.894770 51623999.940484 A503256.000000 503256.000000 0.0 0 0 252578000.059516 50938200.105230" />
<path d="M252578000.059516 49261799.894770 A503256.000000 503256.000000 0.0 0 0 253263799.894770 48576000.059516" />
<path d="M246863000.000001 47687000.000000 A380999.000000 380999.000000 0.0 0 0 247244000.000000 48067999.999999" />
<path d="M254940200.105230 48576000.059516 A503256.000000 503256.000000 0.0 0 0 255625999.940484 49261799.894770" />
<path d="M248590200.105230 45401000.059516 A503256.000000 503256.000000 0.0 0 0 249275999.940484 46086799.894770" />
<path d="M248895000.000000 48067999.999999 A380999.000000 380999.000000 0.0 0 0 249275999.999999 47687000.000000" />
<path d="M246863000.059516 46086799.894770 A503256.000000 503256.000000 0.0 0 0 247548799.894770 45401000.059516" />
</g>
<g style="fill:#D0D2CD; fill-opacity:0.0; 
stroke:#D0D2CD; stroke-width:80000.000000; stroke-opacity:1; 
stroke-linecap:round; stroke-linejoin:round;">
<path d="M132547565 97784348
L133047565 97784348
" />
<path d="M133047565 101784348
L132547565 101784348
" />
<path d="M133047568.000000 97784344.999999 A999996.000000 999996.000000 0.0 0 0 134047564.999999 96784348.000000" />
<path d="M134047561.999999 102784345.000000 A999996.000000 999996.000000 0.0 0 0 133047565.000000 101784348.000001" />
<path d="M132547562.000000 101784351.000001 A999996.000000 999996.000000 0.0 0 0 131547565.000001 102784348.000000" />
<path d="M131547568.000001 96784351.000000 A999996.000000 999996.000000 0.0 0 0 132547565.000000 97784347.999999" />
<path d="M142972565 55384348
L143472565 55384348
" />
<path d="M143472565 59384348
L142972565 59384348
" />
<path d="M142972562.000000 59384351.000000 A999996.000000 999996.000000 0.0 0 0 141972565.000001 60384348.000000" />
<path d="M143472568.000000 55384345.000000 A999996.000000 999996.000000 0.0 0 0 144472564.999999 54384348.000000" />
<path d="M141972568.000001 54384351.000000 A999996.000000 999996.000000 0.0 0 0 142972565.000000 55384348.000000" />
<path d="M144472561.999999 60384345.000000 A999996.000000 999996.000000 0.0 0 0 143472565.000000 59384348.000000" />
<path d="M132577565 55384348
L133077565 55384348
" />
<path d="M133077565 59384348
L132577565 59384348
" />
<path d="M134077561.999999 60384345.000000 A999996.000000 999996.000000 0.0 0 0 133077565.000000 59384348.000000" />
<path d="M133077568.000000 55384345.000000 A999996.000000 999996.000000 0.0 0 0 134077564.999999 54384348.000000" />
<path d="M132577562.000000 59384351.000000 A999996.000000 999996.000000 0.0 0 0 131577565.000001 60384348.000000" />
<path d="M131577568.000001 54384351.000000 A999996.000000 999996.000000 0.0 0 0 132577565.000000 55384348.000000" />
</g>
<g style="fill:#D0D2CD; fill-opacity:0.0; 
stroke:#D0D2CD; stroke-width:120000.000000; stroke-opacity:1; 
stroke-linecap:round; stroke-linejoin:round;">
<path d="M28451200 54799000
L27409800 54799000
" />
<path d="M26724000 54113200
L26724000 52513000
" />
<path d="M22736200 48576000
L21059800 48576000
" />
<path d="M20374000 50938200
L20374000 49261800
" />
<path d="M22736200 51624000
L21059800 51624000
" />
<path d="M27105000 52132000
L28756000 52132000
" />
<path d="M29137000 52513000
L29137000 54113200
" />
<path d="M23422000 50938200
L23422000 49261800
" />
<path d="M27105000.000000 52132000.000001 A380999.000000 380999.000000 0.0 0 0 26724000.000001 52513000.000000" />
<path d="M27409799.894770 54798999.940484 A503256.000000 503256.000000 0.0 0 0 26724000.059516 54113200.105230" />
<path d="M21059799.894770 51623999.940484 A503256.000000 503256.000000 0.0 0 0 20374000.059516 50938200.105230" />
<path d="M23421999.940484 50938200.105230 A503256.000000 503256.000000 0.0 0 0 22736200.105230 51623999.940484" />
<path d="M29136999.940484 54113200.105230 A503256.000000 503256.000000 0.0 0 0 28451200.105230 54798999.940484" />
<path d="M29136999.999999 52513000.000000 A380999.000000 380999.000000 0.0 0 0 28756000.000000 52132000.000001" />
<path d="M22736200.105230 48576000.059516 A503256.000000 503256.000000 0.0 0 0 23421999.940484 49261799.894770" />
<path d="M20374000.125676 49261799.777790 A503257.000000 503257.000000 0.0 0 0 21059799.777790 48576000.125676" />
<g >
</g>
<g >
</g>
<g >
</g>
<g >
</g>
<g >
</g>
<g >
</g>
<g >
</g>
<g >
</g>
<g >
</g>
<g >
</g>
<g >
</g>
<g >
</g>
<g >
</g>
<g >
</g>
<g >
</g>
<g >
</g>
<g >
</g>
<g >
</g>
<g >
</g>
<g >
</g>
<g >
</g>
<g >
</g>
<g >
</g>
<g >
</g>
<g >
</g>
<g >
</g>
<g >
</g>
<g >
</g>
<g >
</g>
<g >
</g>
<g >
</g>
<g >
</g>
<g >
</g>
<g >
</g>
<g >
</g>
<g >
</g>
<g >
</g>
<g >
</g>
<g >
</g>
<g >
</g>
<g >
</g>
<g >
</g>
<g >
</g>
<g >
</g>
<g >
</g>
<g >
</g>
<g >
</g>
<g >
</g>
<g >
</g>
<g >
</g>
<g >
</g>
<g >
</g>
<g >
</g>
<g >
</g>
<g >
</g>
<g >
</g>
<g >
</g>
<g >
</g>
<g >
</g>
<g >
</g>
<g >
</g>
<g >
</g>
<g >
</g>
<g >
</g>
<g >
</g>
<g >
</g>
<g >
</g>
<g >
</g>
<g >
</g>
<g >
</g>
<g >
</g>
<g >
</g>
<g >
</g>
<g >
</g>
<g >
</g>
<g >
</g>
<g >
</g>
<g >
</g>
<g >
</g>
<g >
</g>
<g >
</g>
<g >
</g>
<g >
</g>
<g >
</g>
<g >
</g>
<g >
</g>
<g >
</g>
<g >
</g>
<g >
</g>
<g >
</g>
<g >
</g>
<g >
</g>
<g >
</g>
<g >
</g>
<g >
</g>
<g >
</g>
<g >
</g>
<g >
</g>
<g >
</g>
<g >
</g>
<g >
</g>
<g >
</g>
<g >
</g>
</g> 
</svg>
