<?xml version="1.0" standalone="no"?>
 <!DOCTYPE svg PUBLIC "-//W3C//DTD SVG 1.1//EN" 
 "http://www.w3.org/Graphics/SVG/1.1/DTD/svg11.dtd"> 
<svg
  xmlns:svg="http://www.w3.org/2000/svg"
  xmlns="http://www.w3.org/2000/svg"
  xmlns:xlink="http://www.w3.org/1999/xlink"
  version="1.1"
  width="27.599640cm" height="17.848580cm" viewBox="0 0 275996400 178485800">
<title>SVG Picture created as totem_0_3-F_Adhesive.svg date 2023/03/09 11:42:13 </title>
  <desc>Picture generated by PCBNEW </desc>
<g style="fill:#000000; fill-opacity:1.000000;stroke:#000000; stroke-opacity:1.000000;
stroke-linecap:round; stroke-linejoin:round;"
 transform="translate(0 0) scale(1 1)">
</g>
<g style="fill:#000000; fill-opacity:0.0; 
stroke:#000000; stroke-width:0.000000; stroke-opacity:1; 
stroke-linecap:round; stroke-linejoin:round;">
<g >
</g>
<g >
</g>
<g >
</g>
<g >
</g>
<g >
</g>
<g >
</g>
<g >
</g>
<g >
</g>
<g >
</g>
<g >
</g>
<g >
</g>
<g >
</g>
<g >
</g>
<g >
</g>
<g >
</g>
<g >
</g>
<g >
</g>
<g >
</g>
<g >
</g>
<g >
</g>
<g >
</g>
<g >
</g>
<g >
</g>
<g >
</g>
<g >
</g>
<g >
</g>
<g >
</g>
<g >
</g>
<g >
</g>
<g >
</g>
<g >
</g>
<g >
</g>
<g >
</g>
<g >
</g>
<g >
</g>
<g >
</g>
<g >
</g>
<g >
</g>
<g >
</g>
<g >
</g>
<g >
</g>
<g >
</g>
<g >
</g>
<g >
</g>
<g >
</g>
<g >
</g>
<g >
</g>
<g >
</g>
<g >
</g>
<g >
</g>
<g >
</g>
<g >
</g>
<g >
</g>
<g >
</g>
<g >
</g>
<g >
</g>
<g >
</g>
<g >
</g>
<g >
</g>
<g >
</g>
<g >
</g>
<g >
</g>
<g >
</g>
<g >
</g>
<g >
</g>
<g >
</g>
<g >
</g>
<g >
</g>
<g >
</g>
<g >
</g>
<g >
</g>
<g >
</g>
<g >
</g>
<g >
</g>
<g >
</g>
<g >
</g>
<g >
</g>
<g >
</g>
<g >
</g>
<g >
</g>
<g >
</g>
<g >
</g>
<g >
</g>
<g >
</g>
<g >
</g>
<g >
</g>
<g >
</g>
<g >
</g>
<g >
</g>
<g >
</g>
<g >
</g>
<g >
</g>
<g >
</g>
<g >
</g>
<g >
</g>
<g >
</g>
<g >
</g>
<g >
</g>
<g >
</g>
<g >
</g>
<g >
</g>
<g >
</g>
<g >
</g>
</g>
<g style="fill:#000000; fill-opacity:0.0; 
stroke:#000000; stroke-width:0.000000; stroke-opacity:1; 
stroke-linecap:round; stroke-linejoin:round;">
</g>
<g style="fill:#D0D2CD; fill-opacity:0.0; 
stroke:#D0D2CD; stroke-width:0.000000; stroke-opacity:1; 
stroke-linecap:round; stroke-linejoin:round;">
</g>
<g style="fill:#D0D2CD; fill-opacity:0.0; 
stroke:#D0D2CD; stroke-width:10000.000000; stroke-opacity:1; 
stroke-linecap:round; stroke-linejoin:round;">
<path d="M136600903.000000,115155542.000000 C136600903.000000,115155542.000000 131266905.000000,112075788.000000 131266905.000000,112075788.000000" />
<path d="M11872776.000000,109740412.000000 C11872776.000000,109740412.000000 18632000.000000,108548021.000000 18632000.000000,108548021.000000" />
<path d="M141972565 60384348
L134077562 60384345
" />
<path d="M144617956.000000,112075788.000000 C144617956.000000,112075788.000000 139283958.000000,115155542.000000 139283958.000000,115155542.000000" />
<path d="M63896883.000000,36295611.000000 C63896883.000000,36295611.000000 63896883.000000,40155000.000000 63896883.000000,40155000.000000" />
<path d="M19630362.000000,115092044.000000 C19630362.000000,115092044.000000 76861504.000000,115092044.000000 76861504.000000,115092044.000000" />
<path d="M193502311.000000,36295611.000000 C193502311.000000,36295611.000000 193502311.000000,40155000.000000 193502311.000000,40155000.000000" />
<path d="M82396546.000000,40155000.000000 C82396546.000000,40155000.000000 82396546.000000,36295611.000000 82396546.000000,36295611.000000" />
<path d="M82100214.000000,35999278.000000 C82100214.000000,35999278.000000 64193215.000000,35999278.000000 64193215.000000,35999278.000000" />
<path d="M144472562 60384345
L144625000 60384000
" />
<path d="M131270414 96784351
L131547568 96784351
" />
<path d="M64193215.000000,35999278.000000 C64030935.000000,35999278.000000 63896883.000000,36133336.000000 63896883.000000,36295611.000000" />
<path d="M172423903.000000,118954965.000000 C181236285.000000,116594881.000000 185684829.000000,116594881.000000 190129821.000000,116594881.000000" />
<path d="M148032853.000000,130310883.000000 C149010044.000000,129746436.000000 152629547.000000,127657998.000000 155695187.000000,125887047.000000" />
<path d="M144472565 54384348
L144624954 54384348
" />
<path d="M267289366.000000,92849410.000000 C267317594.000000,92687135.000000 267211765.000000,92535432.000000 267049480.000000,92507215.000000" />
<path d="M131273902.000000,54384351.000000 C131273902.000000,54319031.000000 131273902.000000,41153362.000000 131273902.000000,41153362.000000" />
<path d="M131266905.000000,112075788.000000 C131266905.000000,112075788.000000 131266905.000000,102780091.000000 131266905.000000,102780091.000000" />
<path d="M144442565 96784348
L144625000 96784348
" />
<path d="M77157836.000000,116594881.000000 C78216170.000000,116594881.000000 81959137.000000,116594881.000000 85755029.000000,116594881.000000" />
<path d="M264354252.000000,109500525.000000 C264354252.000000,109500525.000000 267289366.000000,92849410.000000 267289366.000000,92849410.000000" />
<path d="M199023356.000000,116298549.000000 C199023356.000000,116298549.000000 199023356.000000,115092044.000000 199023356.000000,115092044.000000" />
<path d="M139174598.000000,115557714.000000 C139174598.000000,115557714.000000 147630681.000000,130201523.000000 147630681.000000,130201523.000000" />
<path d="M257252855.000000,114093688.000000 C257252855.000000,114093688.000000 257252855.000000,108548021.000000 257252855.000000,108548021.000000" />
<path d="M85755029.000000,116594881.000000 C90200031.000000,116594881.000000 94648554.000000,116594881.000000 103460947.000000,118954965.000000" />
<path d="M257252855.000000,108548021.000000 C257252855.000000,108548021.000000 264012068.000000,109740412.000000 264012068.000000,109740412.000000" />
<path d="M211705657.000000,35999278.000000 C211705657.000000,35999278.000000 193798654.000000,35999278.000000 193798654.000000,35999278.000000" />
<path d="M76861504.000000,115092044.000000 C76861504.000000,115092044.000000 76861504.000000,116298549.000000 76861504.000000,116298549.000000" />
<path d="M76861504.000000,116298549.000000 C76861504.000000,116460824.000000 76992031.000000,116594881.000000 77157836.000000,116594881.000000" />
<path d="M131270414 60384348
L131270414 96784351
" />
<path d="M256261508.000000,40155000.000000 C256261508.000000,40155000.000000 212002000.000000,40155000.000000 212002000.000000,40155000.000000" />
<path d="M144442562 102784345
L144617956 102780091
" />
<path d="M193502311.000000,40155000.000000 C193502311.000000,40155000.000000 145623310.000000,40155000.000000 145623310.000000,40155000.000000" />
<path d="M18632000.000000,90778606.000000 C18632000.000000,90778606.000000 8835361.000000,92507215.000000 8835361.000000,92507215.000000" />
<path d="M155695187.000000,125887047.000000 C159653354.000000,123601043.000000 163611521.000000,121315050.000000 172423903.000000,118954965.000000" />
<path d="M19630362.000000,40155000.000000 C19076501.000000,40155000.000000 18632000.000000,40603030.000000 18632000.000000,41153362.000000" />
<path d="M130275546.000000,40155000.000000 C130275546.000000,40155000.000000 82396546.000000,40155000.000000 82396546.000000,40155000.000000" />
<path d="M11530582.000000,109500525.000000 C11558804.000000,109662800.000000 11710499.000000,109768640.000000 11872776.000000,109740412.000000" />
</g>
<g style="fill:#D0D2CD; fill-opacity:0.0; 
stroke:#D0D2CD; stroke-width:100000.000000; stroke-opacity:1; 
stroke-linecap:round; stroke-linejoin:round;">
<path d="M134077565 54384348
L141972568 54384348
" />
</g>
<g style="fill:#D0D2CD; fill-opacity:0.0; 
stroke:#D0D2CD; stroke-width:10000.000000; stroke-opacity:1; 
stroke-linecap:round; stroke-linejoin:round;">
<path d="M257259875.000000,90778617.000000 C257259875.000000,90778617.000000 257259875.000000,41153362.000000 257259875.000000,41153362.000000" />
<path d="M131273902 54384351
L131577568 54384351
" />
<path d="M264012068.000000,109740412.000000 C264174354.000000,109768629.000000 264326046.000000,109662800.000000 264354252.000000,109500525.000000" />
<path d="M193798654.000000,35999278.000000 C193636368.000000,35999278.000000 193502311.000000,36133336.000000 193502311.000000,36295611.000000" />
<path d="M128254179.000000,130201523.000000 C128254179.000000,130201523.000000 136710263.000000,115557714.000000 136710263.000000,115557714.000000" />
<path d="M8835361.000000,92507215.000000 C8673083.000000,92535432.000000 8567250.000000,92687135.000000 8595472.000000,92849410.000000" />
<path d="M8595472.000000,92849410.000000 C8595472.000000,92849410.000000 11530582.000000,109500525.000000 11530582.000000,109500525.000000" />
<path d="M63896883.000000,40155000.000000 C63896883.000000,40155000.000000 19630362.000000,40155000.000000 19630362.000000,40155000.000000" />
</g>
<g style="fill:#D0D2CD; fill-opacity:0.0; 
stroke:#D0D2CD; stroke-width:100000.000000; stroke-opacity:1; 
stroke-linecap:round; stroke-linejoin:round;">
<path d="M134047565 96784348
L141942568 96784348
" />
</g>
<g style="fill:#D0D2CD; fill-opacity:0.0; 
stroke:#D0D2CD; stroke-width:10000.000000; stroke-opacity:1; 
stroke-linecap:round; stroke-linejoin:round;">
<path d="M131273902.000000,41153362.000000 C131273902.000000,40599498.000000 130825878.000000,40155000.000000 130275546.000000,40155000.000000" />
<path d="M144624954.000000,41153362.000000 C144624954.000000,41153362.000000 144624954.000000,54384348.000000 144624954.000000,54384348.000000" />
<path d="M120189674.000000,125887047.000000 C123255313.000000,127657987.000000 126871286.000000,129746436.000000 127852007.000000,130310883.000000" />
<path d="M145623310.000000,40155000.000000 C145069447.000000,40155000.000000 144624954.000000,40603030.000000 144624954.000000,41153362.000000" />
<path d="M18632000.000000,41153362.000000 C18632000.000000,41153362.000000 18632000.000000,90778606.000000 18632000.000000,90778606.000000" />
<path d="M198727014.000000,116594881.000000 C198889299.000000,116594881.000000 199023356.000000,116460824.000000 199023356.000000,116298549.000000" />
<path d="M144617956.000000,102780091.000000 C144617956.000000,102780091.000000 144617956.000000,112075788.000000 144617956.000000,112075788.000000" />
<path d="M199023356.000000,115092044.000000 C199023356.000000,115092044.000000 256254488.000000,115092044.000000 256254488.000000,115092044.000000" />
<path d="M18632000.000000,114093688.000000 C18632000.000000,114647552.000000 19080027.000000,115092044.000000 19630362.000000,115092044.000000" />
<path d="M103460947.000000,118954965.000000 C112273339.000000,121315050.000000 116231507.000000,123601053.000000 120189674.000000,125887047.000000" />
<path d="M127852007.000000,130310883.000000 C127993116.000000,130392026.000000 128173037.000000,130342632.000000 128254179.000000,130201523.000000" />
<path d="M131547565 102784348
L131266905 102780091
" />
<path d="M139283958.000000,115155542.000000 C139142849.000000,115236685.000000 139093455.000000,115416594.000000 139174598.000000,115557714.000000" />
<path d="M267049480.000000,92507215.000000 C267049480.000000,92507215.000000 267056521.000000,92507226.000000 267056521.000000,92507226.000000" />
<path d="M144625000 60384000
L144625000 96784348
" />
<path d="M256254488.000000,115092044.000000 C256808352.000000,115092044.000000 257252855.000000,114644021.000000 257252855.000000,114093688.000000" />
<path d="M267056521.000000,92507226.000000 C267056521.000000,92507226.000000 257259875.000000,90778617.000000 257259875.000000,90778617.000000" />
<path d="M136710263.000000,115557714.000000 C136791406.000000,115416605.000000 136742012.000000,115236685.000000 136600903.000000,115155542.000000" />
<path d="M18632000.000000,108548021.000000 C18632000.000000,108548021.000000 18632000.000000,114093688.000000 18632000.000000,114093688.000000" />
<path d="M147630681.000000,130201523.000000 C147711824.000000,130342632.000000 147891734.000000,130392026.000000 148032853.000000,130310883.000000" />
<path d="M131577565 60384348
L131270414 60384348
" />
<path d="M212002000.000000,36295611.000000 C212002000.000000,36133330.000000 211867943.000000,35999278.000000 211705657.000000,35999278.000000" />
<path d="M190129821.000000,116594881.000000 C193929244.000000,116594881.000000 197672211.000000,116594881.000000 198727014.000000,116594881.000000" />
<path d="M82396546.000000,36295611.000000 C82396546.000000,36133330.000000 82262488.000000,35999278.000000 82100214.000000,35999278.000000" />
</g>
<g style="fill:#D0D2CD; fill-opacity:0.0; 
stroke:#D0D2CD; stroke-width:100000.000000; stroke-opacity:1; 
stroke-linecap:round; stroke-linejoin:round;">
<path d="M134047562 102784345
L141942565 102784348
" />
</g>
<g style="fill:#D0D2CD; fill-opacity:0.0; 
stroke:#D0D2CD; stroke-width:10000.000000; stroke-opacity:1; 
stroke-linecap:round; stroke-linejoin:round;">
<path d="M257259875.000000,41153362.000000 C257259875.000000,40599498.000000 256811840.000000,40155000.000000 256261508.000000,40155000.000000" />
<path d="M212002000.000000,40155000.000000 C212002000.000000,40155000.000000 212002000.000000,36295611.000000 212002000.000000,36295611.000000" />
</g>
<g style="fill:#D0D2CD; fill-opacity:0.0; 
stroke:#D0D2CD; stroke-width:100000.000000; stroke-opacity:1; 
stroke-linecap:round; stroke-linejoin:round;">
<circle cx="138009000.000000" cy="2500000.000000" r="1666666.000000" /> 
<path d="M135509000 2500000
L140509000 2500000
" />
<path d="M138009000 0
L138009000 5000000
" />
</g>
<g style="fill:#D0D2CD; fill-opacity:0.0; 
stroke:#D0D2CD; stroke-width:80000.000000; stroke-opacity:1; 
stroke-linecap:round; stroke-linejoin:round;">
<path d="M143442565 101784348
L142942565 101784348
" />
<path d="M142942565 97784348
L143442565 97784348
" />
<path d="M142942562.000000 101784351.000001 A999996.000000 999996.000000 0.0 0 0 141942565.000001 102784348.000000" />
<path d="M141942568.000001 96784351.000000 A999996.000000 999996.000000 0.0 0 0 142942565.000000 97784347.999999" />
<path d="M144442561.999999 102784345.000000 A999996.000000 999996.000000 0.0 0 0 143442565.000000 101784348.000001" />
<path d="M143442568.000000 97784344.999999 A999996.000000 999996.000000 0.0 0 0 144442564.999999 96784348.000000" />
</g>
<g style="fill:#D0D2CD; fill-opacity:0.0; 
stroke:#D0D2CD; stroke-width:120000.000000; stroke-opacity:1; 
stroke-linecap:round; stroke-linejoin:round;">
<path d="M248895000 48068000
L247244000 48068000
" />
<path d="M249276000 46086800
L249276000 47687000
" />
<path d="M253263800 51624000
L254940200 51624000
" />
<path d="M246863000 47687000
L246863000 46086800
" />
<path d="M247548800 45401000
L248590200 45401000
" />
<path d="M252578000 49261800
L252578000 50938200
" />
<path d="M255626000 49261800
L255626000 50938200
" />
<path d="M253263800 48576000
L254940200 48576000
" />
<path d="M255625999.874324 50938200.222210 A503257.000000 503257.000000 0.0 0 0 254940200.222210 51623999.874324" />
<path d="M253263799.894770 51623999.940484 A503256.000000 503256.000000 0.0 0 0 252578000.059516 50938200.105230" />
<path d="M252578000.059516 49261799.894770 A503256.000000 503256.000000 0.0 0 0 253263799.894770 48576000.059516" />
<path d="M246863000.000001 47687000.000000 A380999.000000 380999.000000 0.0 0 0 247244000.000000 48067999.999999" />
<path d="M254940200.105230 48576000.059516 A503256.000000 503256.000000 0.0 0 0 255625999.940484 49261799.894770" />
<path d="M248590200.105230 45401000.059516 A503256.000000 503256.000000 0.0 0 0 249275999.940484 46086799.894770" />
<path d="M248895000.000000 48067999.999999 A380999.000000 380999.000000 0.0 0 0 249275999.999999 47687000.000000" />
<path d="M246863000.059516 46086799.894770 A503256.000000 503256.000000 0.0 0 0 247548799.894770 45401000.059516" />
</g>
<g style="fill:#D0D2CD; fill-opacity:0.0; 
stroke:#D0D2CD; stroke-width:80000.000000; stroke-opacity:1; 
stroke-linecap:round; stroke-linejoin:round;">
<path d="M132547565 97784348
L133047565 97784348
" />
<path d="M133047565 101784348
L132547565 101784348
" />
<path d="M133047568.000000 97784344.999999 A999996.000000 999996.000000 0.0 0 0 134047564.999999 96784348.000000" />
<path d="M134047561.999999 102784345.000000 A999996.000000 999996.000000 0.0 0 0 133047565.000000 101784348.000001" />
<path d="M132547562.000000 101784351.000001 A999996.000000 999996.000000 0.0 0 0 131547565.000001 102784348.000000" />
<path d="M131547568.000001 96784351.000000 A999996.000000 999996.000000 0.0 0 0 132547565.000000 97784347.999999" />
<path d="M142972565 55384348
L143472565 55384348
" />
<path d="M143472565 59384348
L142972565 59384348
" />
<path d="M142972562.000000 59384351.000000 A999996.000000 999996.000000 0.0 0 0 141972565.000001 60384348.000000" />
<path d="M143472568.000000 55384345.000000 A999996.000000 999996.000000 0.0 0 0 144472564.999999 54384348.000000" />
<path d="M141972568.000001 54384351.000000 A999996.000000 999996.000000 0.0 0 0 142972565.000000 55384348.000000" />
<path d="M144472561.999999 60384345.000000 A999996.000000 999996.000000 0.0 0 0 143472565.000000 59384348.000000" />
<path d="M132577565 55384348
L133077565 55384348
" />
<path d="M133077565 59384348
L132577565 59384348
" />
<path d="M134077561.999999 60384345.000000 A999996.000000 999996.000000 0.0 0 0 133077565.000000 59384348.000000" />
<path d="M133077568.000000 55384345.000000 A999996.000000 999996.000000 0.0 0 0 134077564.999999 54384348.000000" />
<path d="M132577562.000000 59384351.000000 A999996.000000 999996.000000 0.0 0 0 131577565.000001 60384348.000000" />
<path d="M131577568.000001 54384351.000000 A999996.000000 999996.000000 0.0 0 0 132577565.000000 55384348.000000" />
</g>
<g style="fill:#D0D2CD; fill-opacity:0.0; 
stroke:#D0D2CD; stroke-width:120000.000000; stroke-opacity:1; 
stroke-linecap:round; stroke-linejoin:round;">
<path d="M28451200 54799000
L27409800 54799000
" />
<path d="M26724000 54113200
L26724000 52513000
" />
<path d="M22736200 48576000
L21059800 48576000
" />
<path d="M20374000 50938200
L20374000 49261800
" />
<path d="M22736200 51624000
L21059800 51624000
" />
<path d="M27105000 52132000
L28756000 52132000
" />
<path d="M29137000 52513000
L29137000 54113200
" />
<path d="M23422000 50938200
L23422000 49261800
" />
<path d="M27105000.000000 52132000.000001 A380999.000000 380999.000000 0.0 0 0 26724000.000001 52513000.000000" />
<path d="M27409799.894770 54798999.940484 A503256.000000 503256.000000 0.0 0 0 26724000.059516 54113200.105230" />
<path d="M21059799.894770 51623999.940484 A503256.000000 503256.000000 0.0 0 0 20374000.059516 50938200.105230" />
<path d="M23421999.940484 50938200.105230 A503256.000000 503256.000000 0.0 0 0 22736200.105230 51623999.940484" />
<path d="M29136999.940484 54113200.105230 A503256.000000 503256.000000 0.0 0 0 28451200.105230 54798999.940484" />
<path d="M29136999.999999 52513000.000000 A380999.000000 380999.000000 0.0 0 0 28756000.000000 52132000.000001" />
<path d="M22736200.105230 48576000.059516 A503256.000000 503256.000000 0.0 0 0 23421999.940484 49261799.894770" />
<path d="M20374000.125676 49261799.777790 A503257.000000 503257.000000 0.0 0 0 21059799.777790 48576000.125676" />
<g >
</g>
<g >
</g>
<g >
</g>
<g >
</g>
<g >
</g>
<g >
</g>
<g >
</g>
<g >
</g>
<g >
</g>
<g >
</g>
<g >
</g>
<g >
</g>
<g >
</g>
<g >
</g>
<g >
</g>
<g >
</g>
<g >
</g>
<g >
</g>
<g >
</g>
<g >
</g>
<g >
</g>
<g >
</g>
<g >
</g>
<g >
</g>
<g >
</g>
<g >
</g>
<g >
</g>
<g >
</g>
<g >
</g>
<g >
</g>
<g >
</g>
<g >
</g>
<g >
</g>
<g >
</g>
<g >
</g>
<g >
</g>
<g >
</g>
<g >
</g>
<g >
</g>
<g >
</g>
<g >
</g>
<g >
</g>
<g >
</g>
<g >
</g>
<g >
</g>
<g >
</g>
<g >
</g>
<g >
</g>
<g >
</g>
<g >
</g>
<g >
</g>
<g >
</g>
<g >
</g>
<g >
</g>
<g >
</g>
<g >
</g>
<g >
</g>
<g >
</g>
<g >
</g>
<g >
</g>
<g >
</g>
<g >
</g>
<g >
</g>
<g >
</g>
<g >
</g>
<g >
</g>
<g >
</g>
<g >
</g>
<g >
</g>
<g >
</g>
<g >
</g>
<g >
</g>
<g >
</g>
<g >
</g>
<g >
</g>
<g >
</g>
<g >
</g>
<g >
</g>
<g >
</g>
<g >
</g>
<g >
</g>
<g >
</g>
<g >
</g>
<g >
</g>
<g >
</g>
<g >
</g>
<g >
</g>
<g >
</g>
<g >
</g>
<g >
</g>
<g >
</g>
<g >
</g>
<g >
</g>
<g >
</g>
<g >
</g>
<g >
</g>
<g >
</g>
<g >
</g>
<g >
</g>
<g >
</g>
<g >
</g>
<g >
</g>
<g >
</g>
</g> 
</svg>
