M48
; DRILL file {KiCad (6.0.10)} date Tue Mar 21 20:35:27 2023
; FORMAT={-:-/ absolute / inch / decimal}
; #@! TF.CreationDate,2023-03-21T20:35:27-04:00
; #@! TF.GenerationSoftware,Kicad,Pcbnew,(6.0.10)
; #@! TF.FileFunction,MixedPlating,1,2
FMAT,2
INCH
; #@! TA.AperFunction,Plated,PTH,ViaDrill
T1C0.0118
; #@! TA.AperFunction,Plated,PTH,ComponentDrill
T2C0.0394
; #@! TA.AperFunction,Plated,PTH,ComponentDrill
T3C0.0400
; #@! TA.AperFunction,Plated,PTH,ComponentDrill
T4C0.0492
; #@! TA.AperFunction,Plated,PTH,ComponentDrill
T5C0.0500
; #@! TA.AperFunction,Plated,PTH,ComponentDrill
T6C0.0512
; #@! TA.AperFunction,Plated,PTH,ComponentDrill
T7C0.1260
; #@! TA.AperFunction,NonPlated,NPTH,ComponentDrill
T8C0.0197
; #@! TA.AperFunction,NonPlated,NPTH,ComponentDrill
T9C0.0276
; #@! TA.AperFunction,NonPlated,NPTH,ComponentDrill
T10C0.0472
; #@! TA.AperFunction,NonPlated,NPTH,ComponentDrill
T11C0.0670
; #@! TA.AperFunction,NonPlated,NPTH,ComponentDrill
T12C0.1181
; #@! TA.AperFunction,NonPlated,NPTH,ComponentDrill
T13C0.1350
%
G90
G05
T1
X1.3642Y-4.5262
X1.3711Y-2.7278
X1.4721Y-2.7278
X1.502Y-4.3524
X1.5227Y-3.9927
X1.5236Y-4.2205
X1.5256Y-3.9248
X1.5305Y-4.3524
X1.5315Y-4.3248
X1.5591Y-4.3238
X1.56Y-4.2916
X1.5642Y-2.3693
X1.5712Y-2.7278
X1.5725Y-2.1034
X1.6725Y-2.1034
X1.6727Y-2.7278
X1.7726Y-2.1034
X1.8737Y-2.1042
X2.0405Y-3.2909
X2.1576Y-3.9514
X2.2737Y-4.6078
X2.2744Y-4.6555
X2.4315Y-2.1217
X2.4315Y-2.227
X2.5679Y-2.0227
X2.8554Y-2.6994
X2.9017Y-3.3677
X2.9413Y-2.1207
X2.9413Y-2.2417
X2.9416Y-2.0792
X2.9489Y-4.035
X3.0738Y-1.8504
X3.6773Y-2.2821
X3.6773Y-2.9514
X3.6773Y-3.6216
X3.9311Y-2.002
X4.0612Y-2.3448
X4.0612Y-2.3448
X4.0612Y-2.3448
X4.187Y-4.7677
X4.1881Y-4.5855
X4.3859Y-2.6138
X4.3859Y-3.283
X4.3859Y-3.9514
X4.6407Y-1.9882
X4.6786Y-4.1474
X4.7512Y-4.5717
X4.7684Y-4.4525
X4.84Y-2.0215
X4.84Y-2.122
X4.9843Y-2.7205
X4.9843Y-3.3888
X4.9872Y-4.06
X4.999Y-4.8888
X5.0089Y-4.5934
X5.2589Y-4.252
X5.3065Y-4.2663
X5.3067Y-2.6453
X5.3067Y-2.9291
X5.3067Y-3.2122
X5.3067Y-3.4953
X5.3067Y-3.7795
X5.3986Y-4.251
X5.4029Y-4.3195
X5.4472Y-4.2526
X5.4476Y-2.6457
X5.4476Y-2.9291
X5.4476Y-3.2126
X5.4476Y-3.4949
X5.4476Y-3.7783
X5.5384Y-4.252
X5.585Y-4.2683
X5.5852Y-2.6451
X5.5852Y-2.9285
X5.5852Y-3.212
X5.5852Y-3.4947
X5.5852Y-3.7789
X5.6348Y-5.2067
X5.7043Y-4.9433
X5.7901Y-4.9441
X6.2248Y-4.2683
X6.2248Y-2.6449
X6.2248Y-2.9283
X6.2248Y-3.2126
X6.2248Y-3.4961
X6.2248Y-3.7803
X6.2732Y-4.2531
X6.3216Y-4.562
X6.3645Y-4.2535
X6.3646Y-2.6453
X6.3646Y-2.9291
X6.3646Y-3.213
X6.3646Y-3.4969
X6.3646Y-3.7799
X6.4118Y-4.2516
X6.5023Y-4.2654
X6.5028Y-2.9283
X6.5028Y-3.2118
X6.5028Y-3.4965
X6.5028Y-3.7791
X6.5031Y-2.6453
X6.5319Y-4.3195
X6.5516Y-4.2516
X6.6747Y-5.0773
X6.7312Y-4.9227
X6.771Y-4.6413
X6.9139Y-2.2587
X7.0374Y-4.4177
X7.0626Y-2.1966
X7.1539Y-2.2165
X7.2127Y-2.2413
X7.3633Y-2.7214
X7.3633Y-3.3943
X7.3633Y-4.0643
X7.4368Y-4.8818
X7.6174Y-2.021
X7.6633Y-4.0347
X7.6648Y-2.7008
X7.6652Y-3.3682
X8.072Y-2.6179
X8.072Y-3.2872
X8.072Y-3.9565
X8.251Y-1.8519
X8.2695Y-4.7334
X8.776Y-3.6138
X8.7806Y-2.2832
X8.7806Y-2.9525
X8.9799Y-2.1273
X8.986Y-2.2567
X9.1913Y-2.1433
X9.2384Y-4.1064
X9.2535Y-2.0224
X9.505Y-4.0077
X9.5444Y-3.3423
X9.5956Y-2.673
X9.7253Y-4.0075
X9.7622Y-2.1463
X9.8095Y-2.0304
X9.8488Y-2.0929
X9.9396Y-2.5898
X10.0394Y-2.5898
X10.1393Y-2.5898
X10.1743Y-4.5785
X10.2391Y-2.5905
X10.2925Y-3.7878
X10.3597Y-4.4899
X10.4066Y-3.2636
X10.4124Y-3.9183
X10.5067Y-3.7657
X10.5086Y-3.8224
X10.547Y-3.82
X10.5673Y-3.7917
X10.6029Y-4.173
X10.8908Y-4.4053
T2
X1.322Y-2.0465
X1.322Y-2.6465
X1.422Y-2.0465
X1.422Y-2.6465
X1.522Y-2.0465
X1.522Y-2.6465
X1.622Y-2.0465
X1.622Y-2.6465
X1.722Y-2.0465
X1.722Y-2.6465
X1.822Y-2.0465
X1.822Y-2.6465
X1.922Y-2.0465
X1.922Y-2.6465
X4.7441Y-2.0217
X4.9409Y-2.0217
X6.8701Y-2.0217
X7.0669Y-2.0217
X9.889Y-2.0465
X9.889Y-2.6465
X9.989Y-2.0465
X9.989Y-2.6465
X10.089Y-2.0465
X10.089Y-2.6465
X10.189Y-2.0465
X10.189Y-2.6465
X10.289Y-2.0465
X10.289Y-2.6465
X10.389Y-2.0465
X10.389Y-2.6465
X10.489Y-2.0465
X10.489Y-2.6465
T3
X1.5346Y-2.5215
X1.6096Y-2.5215
X1.9213Y-2.4433
X1.9213Y-2.5433
X9.8882Y-2.189
X9.8882Y-2.289
X10.2015Y-2.1715
X10.2765Y-2.1715
T4
X3.4252Y-3.8976
X3.622Y-3.8976
X8.189Y-3.8976
X8.3858Y-3.8976
T5
X1.0586Y-4.4764
X1.2668Y-4.5236
X1.5782Y-3.331
X1.6944Y-3.9902
X1.7864Y-3.3783
X1.8106Y-4.6493
X1.9026Y-4.0374
X2.0189Y-4.6965
X2.3546Y-2.7002
X2.4013Y-3.3679
X2.448Y-4.0356
X2.5568Y-2.769
X2.6035Y-3.4367
X2.6502Y-4.1043
X3.1547Y-2.2822
X3.1547Y-2.9515
X3.1547Y-3.6208
X3.3515Y-2.3649
X3.3515Y-3.0342
X3.3515Y-3.7035
X3.6655Y-4.7683
X3.8623Y-4.851
X3.8634Y-2.6143
X3.8634Y-3.2836
X3.8634Y-3.9529
X4.0602Y-2.697
X4.0602Y-3.3663
X4.0602Y-4.0356
X4.4179Y-4.8215
X4.572Y-2.7214
X4.572Y-3.3907
X4.572Y-4.06
X4.5866Y-4.9523
X4.7689Y-2.8041
X4.7689Y-3.4734
X4.7689Y-4.1427
X5.1279Y-5.0612
X5.257Y-5.2313
X6.3385Y-5.2581
X6.5503Y-5.2313
X6.8407Y-2.7214
X6.8407Y-3.3941
X6.8407Y-4.0634
X7.0091Y-4.9234
X7.0375Y-2.8041
X7.0375Y-3.4768
X7.0375Y-4.1461
X7.2207Y-4.9523
X7.5493Y-2.6143
X7.5493Y-3.2836
X7.5493Y-3.9529
X7.7462Y-2.697
X7.7462Y-3.3663
X7.7462Y-4.0356
X7.7472Y-4.7683
X7.944Y-4.851
X8.258Y-2.2822
X8.258Y-2.9515
X8.258Y-3.6208
X8.4548Y-2.3649
X8.4548Y-3.0342
X8.4548Y-3.7035
X8.9631Y-4.0084
X9.0098Y-3.3407
X9.0565Y-2.673
X9.1537Y-4.1046
X9.2004Y-3.4369
X9.2471Y-2.7693
X9.6088Y-4.5816
X9.7251Y-3.9225
X9.7883Y-4.6972
X9.8413Y-3.2633
X9.9046Y-4.0381
X10.0208Y-3.3789
X10.359Y-4.408
X10.5385Y-4.5236
T6
X4.7047Y-2.1201
X4.9803Y-2.1201
X6.8307Y-2.1201
X7.1063Y-2.1201
T7
X1.3504Y-4.7643
X2.2441Y-2.0748
X5.1654Y-2.0748
X5.4921Y-4.4094
X6.3189Y-4.4094
X6.6457Y-2.0748
X9.5669Y-2.0748
X10.4606Y-4.7638
T8
X5.6534Y-4.2297
X5.6534Y-4.2588
X5.6534Y-4.288
X5.6534Y-4.3171
X5.6534Y-4.3462
X5.6534Y-4.3754
X5.6546Y-2.5604
X5.6546Y-2.5895
X5.6546Y-2.6187
X5.6546Y-2.6478
X5.6546Y-2.6769
X5.6546Y-2.7061
X6.1572Y-4.2297
X6.1572Y-4.2588
X6.1572Y-4.288
X6.1572Y-4.3171
X6.1572Y-4.3462
X6.1572Y-4.3754
X6.1584Y-2.5604
X6.1584Y-2.5895
X6.1584Y-2.6187
X6.1584Y-2.6478
X6.1584Y-2.6769
X6.1584Y-2.7061
T9
X2.5098Y-2.0217
X2.628Y-2.0236
X9.1949Y-2.0217
X9.313Y-2.0236
T10
X5.4409Y-2.0157
X5.4409Y-2.2913
X6.3701Y-2.0157
X6.3701Y-2.2913
T11
X1.0132Y-4.3325
X1.4397Y-4.2573
X1.5328Y-3.1871
X1.6491Y-3.8462
X1.7653Y-4.5054
X1.9593Y-3.1119
X2.0756Y-3.771
X2.1918Y-4.4302
X2.3246Y-2.5524
X2.3713Y-3.22
X2.418Y-3.8877
X2.7566Y-2.5222
X2.8033Y-3.1898
X2.85Y-3.8575
X3.135Y-2.1326
X3.135Y-2.8019
X3.135Y-3.4712
X3.5681Y-2.1326
X3.5681Y-2.8019
X3.5681Y-3.4712
X3.6458Y-4.6187
X3.8437Y-2.4647
X3.8437Y-3.134
X3.8437Y-3.8033
X4.0789Y-4.6187
X4.2767Y-2.4647
X4.2767Y-3.134
X4.2767Y-3.8033
X4.4376Y-4.6719
X4.5523Y-2.5718
X4.5523Y-3.2411
X4.5523Y-3.9104
X4.8559Y-4.784
X4.9854Y-2.5718
X4.9854Y-3.2411
X4.9854Y-3.9104
X5.1856Y-4.9218
X5.5607Y-5.1384
X6.2466Y-5.1384
X6.6217Y-4.9218
X6.821Y-2.5718
X6.821Y-3.2445
X6.821Y-3.9138
X6.9514Y-4.784
X7.2541Y-2.5718
X7.2541Y-3.2445
X7.2541Y-3.9138
X7.3697Y-4.6719
X7.5297Y-2.4647
X7.5297Y-3.134
X7.5297Y-3.8033
X7.7275Y-4.6187
X7.9627Y-2.4647
X7.9627Y-3.134
X7.9627Y-3.8033
X8.1606Y-4.6187
X8.2383Y-2.1326
X8.2383Y-2.8019
X8.2383Y-3.4712
X8.6714Y-2.1326
X8.6714Y-2.8019
X8.6714Y-3.4712
X8.9539Y-3.8578
X9.0006Y-3.1901
X9.0473Y-2.5224
X9.386Y-3.888
X9.4326Y-3.2203
X9.4793Y-2.5526
X9.6154Y-4.4308
X9.7317Y-3.7717
X9.8479Y-3.1126
X10.0419Y-4.506
X10.1581Y-3.8469
X10.2744Y-3.1878
X10.3656Y-4.2573
X10.7921Y-4.3325
T12
X1.1858Y-4.0642
X1.3947Y-4.1153
X1.7054Y-2.9188
X1.8216Y-3.5779
X1.9143Y-2.9699
X1.9379Y-4.2371
X2.0305Y-3.6291
X2.1468Y-4.2882
X2.5242Y-2.3036
X2.5709Y-2.9713
X2.6176Y-3.6389
X2.7267Y-2.3763
X2.7733Y-3.0439
X2.82Y-3.7116
X3.3515Y-1.8983
X3.3515Y-2.5676
X3.3515Y-3.2369
X3.5484Y-1.985
X3.5484Y-2.6543
X3.5484Y-3.3236
X3.8623Y-4.3844
X4.0592Y-4.471
X4.0602Y-2.2305
X4.0602Y-2.8998
X4.0602Y-3.5691
X4.2571Y-2.3171
X4.2571Y-2.9864
X4.2571Y-3.6557
X4.7074Y-4.5017
X4.7689Y-2.3376
X4.7689Y-3.0069
X4.7689Y-3.6762
X4.8751Y-4.6363
X4.9657Y-2.4242
X4.9657Y-3.0935
X4.9657Y-3.7628
X5.4903Y-4.8272
X5.6174Y-5.0007
X6.317Y-4.8272
X6.5308Y-4.8038
X7.0375Y-2.3376
X7.0375Y-3.0102
X7.0375Y-3.6795
X7.0999Y-4.5017
X7.2344Y-2.4242
X7.2344Y-3.0968
X7.2344Y-3.7661
X7.3125Y-4.5344
X7.7462Y-2.2305
X7.7462Y-2.8998
X7.7462Y-3.5691
X7.943Y-2.3171
X7.943Y-2.9864
X7.943Y-3.6557
X7.944Y-4.3844
X8.1409Y-4.471
X8.4548Y-1.8983
X8.4548Y-2.5676
X8.4548Y-3.2369
X8.6517Y-1.985
X8.6517Y-2.6543
X8.6517Y-3.3236
X9.1863Y-3.6392
X9.233Y-2.9715
X9.2797Y-2.3039
X9.3766Y-3.7393
X9.4233Y-3.0717
X9.47Y-2.404
X9.8694Y-4.2377
X9.9856Y-3.5786
X10.0482Y-4.3572
X10.1018Y-2.9195
X10.1644Y-3.6981
X10.2806Y-3.039
X10.6195Y-4.0642
X10.7983Y-4.1836
T13
X1.2265Y-4.2949
X1.7461Y-3.1495
X1.8623Y-3.8086
X1.9785Y-4.4678
X2.5406Y-2.5373
X2.5873Y-3.2049
X2.634Y-3.8726
X3.3515Y-2.1326
X3.3515Y-2.8019
X3.3515Y-3.4712
X3.8623Y-4.6187
X4.0602Y-2.4647
X4.0602Y-3.134
X4.0602Y-3.8033
X4.6468Y-4.7279
X4.7689Y-2.5718
X4.7689Y-3.2411
X4.7689Y-3.9104
X5.3731Y-5.0301
X6.4341Y-5.0301
X7.0375Y-2.5718
X7.0375Y-3.2445
X7.0375Y-3.9138
X7.1605Y-4.7279
X7.7462Y-2.4647
X7.7462Y-3.134
X7.7462Y-3.8033
X7.944Y-4.6187
X8.4548Y-2.1326
X8.4548Y-2.8019
X8.4548Y-3.4712
X9.1699Y-3.8729
X9.2166Y-3.2052
X9.2633Y-2.5375
X9.8287Y-4.4684
X9.9449Y-3.8093
X10.0611Y-3.1502
X10.5788Y-4.2949
T2
G00X5.3583Y-2.4114
M15
G01X5.3583Y-2.4311
M16
G05
G00X5.5236Y-2.0768
M15
G01X5.5236Y-2.0965
M16
G05
G00X5.5236Y-2.1949
M15
G01X5.5236Y-2.2146
M16
G05
G00X5.5236Y-2.3524
M15
G01X5.5236Y-2.372
M16
G05
G00X6.2874Y-2.4114
M15
G01X6.2874Y-2.4311
M16
G05
G00X6.4528Y-2.0768
M15
G01X6.4528Y-2.0965
M16
G05
G00X6.4528Y-2.1949
M15
G01X6.4528Y-2.2146
M16
G05
G00X6.4528Y-2.3524
M15
G01X6.4528Y-2.372
M16
G05
T0
M30
